<svg width="2880" height="770" fill="none" xmlns="http://www.w3.org/2000/svg"><path fill-rule="evenodd" clip-rule="evenodd" d="M739 29.028c-1.344 1.175-2.597 2.548-3.844 3.828a39.147 39.147 0 01-3.492 3.566c-22.165 20.247-45.781 31.364-66.351 31.364-20.369 0-37.592-10.303-51.178-30.597A128.722 128.722 0 01597.316.008h.698a130.659 130.659 0 0016.625 36.821c13.529 20.043 30.557 30.294 50.674 30.294 20.419 0 43.833-11.118 65.952-31.16 1.145-1.072 2.245-2.294 3.44-3.567a137.343 137.343 0 013.845-3.927c9.936-8.878 20.618-17.035 30.955-24.941 1.549-1.17 3.047-2.293 4.591-3.52h1.099c-1.748 1.379-3.543 2.705-5.342 4.084-10.331 7.9-20.965 16.063-30.853 24.936zm657.72 65.736c-14.38-13.666-29.26-27.844-38.79-48.09-4.8-10.303-9.54-26.572-11.74-46.662h.7c2.14 19.995 6.89 36.158 11.63 46.409 9.44 20.042 24.26 34.169 38.64 47.835 16.73 15.909 34.01 32.28 42.54 58.187.3.764.55 1.548.75 2.345v2.297c-.4-1.529-.9-3.013-1.34-4.386-8.54-25.755-25.77-42.128-42.39-57.935zM670.201 36.27c-7.034 0-13.874-2.502-20.167-7.395-5.889-4.537-8.784-9.18-11.837-13.974a95.179 95.179 0 00-4.14-6.272 76.002 76.002 0 01-3.045-8.622h.698c.85 2.808 1.8 5.561 2.895 8.215a69.314 69.314 0 014.147 6.324c2.995 4.793 5.889 9.28 11.628 13.765 6.3 4.846 12.888 7.295 19.821 7.295 18.526 0 36.303-16.83 51.975-31.62 1.447-1.373 2.796-2.653 4.192-3.98h1.002c-1.549 1.484-3.096 2.91-4.693 4.44-15.777 14.94-33.698 31.823-52.476 31.823zm758.119 177.878c-3.35-17.646-6.44-34.321-11.23-46.102-8.09-20.09-24.92-36.973-42.69-54.875-10.98-10.961-22.27-22.283-31.8-34.78-11.93-15.554-19.92-29.014-26.61-44.926-3.95-9.385-7.35-20.195-10.64-30.649-.3-.919-.65-1.89-.89-2.808h.69c.25.864.55 1.734.85 2.606 3.25 10.449 6.64 21.264 10.59 30.596 6.68 15.86 14.62 29.271 26.56 44.776 9.53 12.392 20.81 23.763 31.7 34.68 17.87 18.002 34.75 34.931 42.88 55.125 4.8 11.834 7.94 28.561 11.24 46.259 3.19 17.034 6.49 34.674 11.38 47.526.06.095.09.2.1.308v1.786c-.22-.625-.47-1.239-.75-1.838-4.94-12.952-8.24-30.599-11.38-47.684zm-54.52 219.905c-23.22 9.483-52.07 21.212-63.11 45.234-.74 13.106 3.75 24.273 8.54 36.054 6.74 16.523 14.38 35.24 10.09 64.515-3.3 22.231-16.08 36.513-30.91 53.037-6.14 6.83-12.38 13.869-18.37 21.875-15.63 21.014-26.31 44.728-34.6 65.18-8.34 20.342-14.87 36.408-36.74 41.765-13.08 3.212-31.36 5.459-43.89 6.784-6.36.734-12.76 1.124-19.17 1.166-9.64 0-17.92-1.066-24.91-3.154-14.83-4.493-24.27-16.836-36.15-32.44-3.54-4.638-7.18-9.383-11.33-14.432-2.8-3.467-6.49-7.242-10.43-11.321-8.19-8.413-16.63-17.134-18.98-24.123-.84-2.701-.59-5.15-.39-7.954.28-2.421.33-4.864.14-7.295l-.05-.152.1-.101c7.94-10.705 17.58-19.274 26.92-27.641 15.82-14.172 30.85-27.536 36.49-49.516 2.99-11.577 1.89-23.97-3.29-37.892-5.55-14.685-18.43-30.853-36.4-45.438-8.09-6.58-16.68-13.411-25.76-20.706-41.688-33.196-88.97-70.834-114.783-103.629l-.045-.204c-.849-4.026-.552-8.616.598-13.666 3.343-13.771 13.88-30.137 28.956-44.927 14.376-14.026 30.705-24.533 43.734-28.204 1.05-.303 3.1-.864 5.29-1.327 17.37-3.974 35.4-1.224 52.77 1.431 15.03 2.293 29.31 4.486 43.14 2.653 29.9-4.032 51.42-24.483 59.01-56.102 9.99-41.511-17.62-67.569-44.33-92.813-19.67-18.664-40.09-37.892-45.43-63.288-5.1-23.917 1.55-49.725 5.94-66.807 1.75-6.887 3.89-13.77 6.19-20.607h.7a283.734 283.734 0 00-6.24 20.811c-4.35 16.983-10.98 42.686-5.94 66.448 5.29 25.197 25.61 44.372 45.28 62.932 26.81 25.347 54.57 51.559 44.48 93.482-7.64 31.871-29.45 52.524-59.61 56.556-13.88 1.833-28.15-.308-43.28-2.601-17.33-2.653-35.25-5.357-52.53-1.431-2.14.46-4.24 1.024-5.29 1.327-25.86 7.243-65.001 42.942-72.141 72.572a30.938 30.938 0 00-.698 13.357c25.813 32.743 72.989 70.38 114.629 103.524 9.14 7.244 17.72 14.08 25.81 20.654 18.02 14.69 31 30.905 36.54 45.798 5.25 14.027 6.34 26.518 3.35 38.247-5.74 22.184-20.77 35.699-36.69 49.93-9.29 8.261-18.83 16.825-26.77 27.384.18 2.429.14 4.867-.09 7.29-.3 2.758-.51 5.102.34 7.651 2.3 6.836 10.64 15.554 18.83 23.918 3.89 4.032 7.64 7.854 10.43 11.321 4.14 4.997 7.84 9.793 11.38 14.488 11.84 15.496 21.17 27.738 35.8 32.181 11.13 3.362 25.46 4.025 43.79 1.987 12.58-1.382 30.8-3.622 43.83-6.783 21.52-5.199 28.06-21.164 36.29-41.361 8.34-20.503 18.97-44.269 34.65-65.385 6-8.005 12.28-15.04 18.38-21.876 14.77-16.423 27.5-30.648 30.75-52.68 4.29-29.067-3.29-47.684-9.99-64.155-4.79-11.882-9.38-23.103-8.63-36.414l.05-.152c11.18-24.225 40.19-36.105 63.5-45.542 6.34-2.6 12.88-5.257 20.02-6.83a270.63 270.63 0 0146.88-6.223v.716a264.135 264.135 0 00-46.73 6.173c-7.09 1.529-13.63 4.177-19.92 6.731zM1035.16 19.847c-1.8 7.04-3.9 14.08-5.94 20.962-4.4 15.145-8.54 29.474-10.19 42.28-1.25 9.127-1.25 18.559-.05 25.138 3.45 19.787 16.47 35.188 29.06 50.134 14.43 17.081 29.36 34.831 30.5 59.459-1.55 21.933-25.76 25.145-51.37 28.461-4.7.663-9.59 1.274-14.28 2.037-18.768 3.059-40.389 9.18-62.504 17.642-7.74 3.009-15.179 6.732-22.418 10.356-13.778 6.985-26.809 13.614-42.039 15.348-1.973.207-3.956.31-5.94.308-10.332 0-19.32-2.961-27.009-5.765-7.786-2.805-14.478-5.813-20.966-8.82-13.93-6.272-27.059-12.189-47.33-14.027a97.655 97.655 0 00-10.935-.559c-22.018 0-40.438 5.917-58.31 11.625-15.379 4.997-30.002 9.639-45.13 9.639a62.836 62.836 0 01-8.841-.558c-22.968-2.961-40.637-15.097-53.921-37.182-11.736-19.478-18.468-44.111-24.113-67.826-1.649-6.935-4.543-19.938-5.537-29.374-1-8.873.346-15.348 4.191-19.839 6.941-8.209 20.865-8.721 36.993-9.228 7.344-.256 14.876-.511 22.414-1.53 31.759-4.183 58.363-8.366 87.823-20.962 24.264-10.303 48.528-23.202 64.651-32.127 27.058-15.147 57.713-33.863 79.33-65.431h.797c-21.717 31.876-52.519 50.848-79.829 66.045-16.078 8.977-40.341 21.828-64.656 32.179-29.504 12.543-56.216 16.778-88.018 21.009-7.538.971-15.127 1.224-22.464 1.53-15.977.511-29.808.971-36.598 8.977-3.643 4.334-4.989 10.657-3.996 19.327 1.051 9.384 3.896 22.34 5.544 29.275 11.182 47.172 27.259 98.067 77.487 104.496 2.9.347 5.819.516 8.74.504 15.02 0 29.549-4.638 44.979-9.588 17.875-5.708 36.346-11.625 58.464-11.625 3.645 0 7.344.151 10.981.504 20.376 1.839 33.552 7.855 47.53 14.179 6.493 2.908 13.179 5.969 20.919 8.773 7.638 2.752 16.626 5.66 26.81 5.66a54.84 54.84 0 005.843-.307c15.076-1.682 28.056-8.262 41.832-15.194 7.239-3.673 14.683-7.447 22.469-10.403 22.166-8.515 43.838-14.635 62.607-17.697 4.74-.762 9.64-1.425 14.33-1.989 25.31-3.364 49.28-6.528 50.82-27.892-1.14-24.278-16.03-41.924-30.35-59.005-12.69-14.941-25.72-30.498-29.26-50.389-1.2-6.679-1.1-16.163.05-25.395 1.7-12.904 5.89-27.182 10.29-42.326 1.99-6.888 4.04-14.027 5.94-21.014 1.19-4.537 2.44-9.18 3.74-13.667.55-1.937 1.05-3.979 1.65-5.969h.7c-.6 2.095-1.2 4.13-1.7 6.173-1.3 4.49-2.54 9.078-3.79 13.668zm358.76 25.5c-6.79-10.758-12.88-23.714-12.98-45.34h.65c.15 21.422 6.14 34.326 12.88 44.985 8.59 13.514 20.97 21.62 34.15 30.244 3.94 2.6 7.93 5.2 11.83 8.005v.815c-3.99-2.857-8.14-5.557-12.18-8.21-13.18-8.67-25.66-16.833-34.35-30.5zM991.422 61.154c-4.043 9.285-8.287 18.769-9.682 28.712-3.947 27.233 9.831 44.934 23.11 62.117 9.14 11.677 17.68 22.696 20.32 36.262.53 2.705.64 5.474.35 8.214-.1 1.425-.2 2.953-.2 5.045v.104c-3.39 9.64-13.53 16.424-21.46 20.398-28.661 14.486-75.345 21.315-109.393 26.315a111.72 111.72 0 01-15.526 1.122c-13.231 0-25.511-2.293-38.491-4.689-13.88-2.554-28.256-5.257-44.835-5.257-4.392 0-8.886.204-13.226.559-.9.105-3.4.256-6.595.46-4.693.256-10.584.563-14.724.919-13.88 1.07-24.865 3.572-35.448 6.016-14.179 3.216-27.456 6.272-47.184 6.272-2.045 0-4.19-.048-6.336-.1-15.674-2.501-30.06-19.379-35.798-42.022-4.738-18.717-3.643-43.606 13.629-57.371 20.319-16.168 79.533-30.346 111.337-32.947 6.789-.611 12.428-.663 17.872-.663 6.089-.052 12.332-.099 20.52-.815 21.922-2.042 40.04-10.862 60.663-29.524 25.511-23.155 39.34-41.057 59.112-76.5A88.462 88.462 0 00925.422.009h.752a90.708 90.708 0 01-6.192 14.08c-19.774 35.538-33.603 53.443-59.261 76.697-20.67 18.768-38.942 27.641-61.011 29.683-8.185.762-14.479.814-20.568.814-5.695.053-11.031.105-17.826.663-31.702 2.653-90.711 16.727-111.03 32.843-16.977 13.515-17.978 38.148-13.334 56.66 5.645 22.335 19.872 39.01 35.251 41.512 2.095.051 4.19.099 6.235.099 19.577 0 32.955-3.107 47.036-6.272 10.633-2.444 21.614-4.946 35.545-6.016 4.142-.308 10.036-.716 14.729-.971 3.195-.152 5.688-.303 6.59-.355 4.412-.435 8.843-.639 13.277-.612 16.625 0 31.057 2.653 44.932 5.257 12.985 2.397 25.214 4.637 38.394 4.637 5.163.032 10.32-.325 15.429-1.07 33.997-4.998 80.626-11.782 109.18-26.263 7.8-3.875 17.78-10.554 21.07-19.99.05-2.042.16-3.572.2-4.998.37-2.683.27-5.409-.3-8.058-2.64-13.311-11.13-24.325-20.17-35.954-13.424-17.239-27.258-35.088-23.26-62.625 1.447-9.995 5.639-19.635 9.734-28.863 1.595-3.624 3.297-7.394 4.745-11.17 5.241-13.314 11.381-31.218 15.271-49.728h.65c-3.94 18.617-10.08 36.67-15.324 50.034-1.446 3.718-3.098 7.494-4.744 11.112zm379.828 275.031c-9.24-10.502-17.42-21.724-26.11-33.553-13.78-18.768-28.01-38.147-46.38-54.159a72.12 72.12 0 01-3.8-3.88 55.369 55.369 0 00-3.49-3.566c-11.98-10.815-25.71-19.484-38.94-27.792-9.18-5.818-18.72-11.782-27.66-18.513-7.09-5.358-14.23-10.967-21.07-16.372-10.43-8.261-21.21-16.727-32.1-24.377-5.14-3.618-10.48-7.091-16.17-10.763-27.76-18.1-59.22-38.602-64.01-75.682-2.55-19.586 2.5-44.827 13.23-67.522h.7c-10.74 22.643-15.78 47.886-13.28 67.473 4.79 36.769 36.1 57.175 63.75 75.121 5.64 3.672 10.98 7.191 16.13 10.763 10.93 7.697 21.72 16.214 32.1 24.424 6.89 5.41 13.98 11.018 21.17 16.372 8.89 6.679 18.38 12.7 27.56 18.46 13.28 8.418 27.01 17.086 38.99 27.897 1.3 1.122 2.45 2.448 3.6 3.624a44.5 44.5 0 003.74 3.77c18.43 16.063 32.7 35.495 46.43 54.264 8.69 11.88 16.93 23.05 26.12 33.504a126.767 126.767 0 0068.69 40.494v.71a128.38 128.38 0 01-69.2-40.697zm40.94-26.414c-8.94-13.311-8.99-37.484-8.04-57.067.75-15.808.5-45.998-9.63-71.09-7.84-19.176-26.41-36.263-44.39-52.681-2.74-2.548-5.44-5.05-8.09-7.546-36-33.506-53.86-63.648-69.59-98.48-1.35-2.952-2.5-6.12-3.65-9.18a116.053 116.053 0 00-4.74-11.474c-.35-.762-.75-1.53-1.1-2.245h.75c.3.663.65 1.28 1 1.89 1.76 3.778 3.33 7.642 4.7 11.58 1.15 3.06 2.29 6.167 3.69 9.128 15.68 34.832 33.45 64.87 69.4 98.323 2.64 2.496 5.39 4.945 8.08 7.447 18.03 16.519 36.7 33.603 44.54 52.982 10.18 25.192 10.43 55.538 9.68 71.346-.95 19.53-.85 43.553 7.94 56.712 6.39 9.432 16.57 16.163 27.71 21.928v.763c-11.33-5.865-21.72-12.649-28.26-22.336zm18.33-291.047c-4.35-4.585-6.2-11.729-6.2-18.716h.75c0 6.888 1.85 13.922 5.9 18.262 2.84 3.008 6.08 4.64 9.48 4.64v.664c-3.54-.004-6.99-1.685-9.93-4.85zm-205.1-7.901c9.49 11.42 16.43 27.03 23.12 42.126a403.36 403.36 0 013.04 6.836c9.79 21.52 21.92 48.346 35.2 66.65 7.19 10.001 19.07 17.186 31.65 24.789 17.82 10.759 36.25 21.929 43.44 42.431 2.59 7.394 2.64 15.499.1 25.651-2.5 5.661-6.84 8.517-12.83 8.517-9.89 0-21.57-7.806-26.36-11.984-9.54-8.215-17.93-19.583-25.96-30.655-4.35-5.864-8.79-12.031-13.39-17.642-2.24-2.606-9.93-11.578-16.37-15.453-15.28-9.18-34.85-16.22-55.57-23.666-28.81-10.298-58.51-20.955-77.03-38.3-9.89-9.073-15.73-23.354-16.23-39.062-.45-16.83 5.24-32.79 16.18-45.03a53.97 53.97 0 016.29-6.023h1.1a59.518 59.518 0 00-6.89 6.528 63.412 63.412 0 00-15.98 44.472c.4 15.504 6.24 29.631 15.93 38.607 18.47 17.187 48.18 27.844 76.83 38.141 20.77 7.447 40.34 14.487 55.67 23.714 6.64 4.032 14.33 13.008 16.52 15.656 4.7 5.562 9.14 11.738 13.48 17.698 8.04 10.967 16.33 22.288 25.82 30.446 4.74 4.13 16.27 11.881 25.96 11.881 5.74 0 9.83-2.704 12.23-8.109 2.44-9.897 2.39-17.902-.15-25.192-7.09-20.246-25.42-31.312-43.13-42.023-12.64-7.65-24.57-14.894-31.91-25.04-13.23-18.309-25.36-45.188-35.19-66.708-1.01-2.293-2-4.59-3.05-6.883-6.69-15.04-13.63-30.545-23.06-41.913A62.046 62.046 0 001212.64.007h1.15a63.89 63.89 0 0111.63 10.815zM961.418 185.286l-.051.104c-1.196 1.274-1.897 3.055-2.546 4.789l-.149.36-.102.204c-4.892 4.642-12.177 7.243-20.567 7.243-11.932 0-23.76-5.154-29.554-12.753a17.736 17.736 0 01-3.297-15.295c2.546-10.101 11.983-13.417 22.269-16.116l.046-.053.048.055c17.474 2.6 35.546 13.51 33.9 31.359v.105l.003-.002zm-33.903-30.801c-10.08 2.7-19.224 5.864-21.717 15.604a17.023 17.023 0 003.195 14.737c5.644 7.447 17.326 12.497 29.007 12.497 8.19 0 15.327-2.554 20.072-7.092l.097-.256c.7-1.781 1.4-3.619 2.597-4.998 1.7-19.834-20.963-28.607-33.251-30.492zm-146.979 42.53l-.251.459-.097.052c-10.736 6.883-28.506 11.473-44.186 11.473-10.332 0-28.356-2.088-33.048-16.319v-.052a17.758 17.758 0 011.288-7.104 17.759 17.759 0 014.011-6.002c6.783-7.138 20.313-11.522 35.242-11.522 18.92 0 39.339 7.447 39.641 23.97v.105l-.149.099a14.176 14.176 0 00-2.449 4.841h-.002zm-37.044-28.357c-14.729 0-28.106 4.387-34.802 11.321a17.592 17.592 0 00-5.091 12.549c4.594 13.766 22.32 15.808 32.4 15.808 15.526 0 33.048-4.537 43.787-11.321l.097-.309c.701-1.734 1.35-3.566 2.546-4.896-.342-15.909-20.412-23.152-38.934-23.152h-.003zm512.538 354.026c3.79 16.575 7.74 33.814 6.14 59.518-12.64 44.725-27.56 78.484-45.48 103.32-4.2 5.766-9.34 12.34-15.83 17.643-9.29 7.598-22.52 12.084-35.25 12.084-12.83 0-23.81-4.486-30.9-12.799-7.89-9.129-10.79-22.284-8.64-39.062 1.25-9.384 4.6-19.28 7.89-28.869 3.3-9.535 6.7-19.379 7.89-28.758 4.84-36.466-10.44-74.254-40.69-101.029-12.83-11.426-26.11-20.654-38.85-29.579-13.82-9.739-28.1-19.787-41.63-32.332-20.57-19.02-43.833-40.645-47.678-73.234v-.151c2.444-15.406 7.137-31.265 24.315-42.587 9.733-6.476 20.513-9.483 33.893-9.483 11.44 0 23.17 2.193 35.65 4.485 13.43 2.448 27.31 4.998 41.74 4.998 3.54 0 7.04-.152 10.38-.407 6.84-.664 15.48-2.805 24.51-5.097 12.19-3.014 24.82-6.173 34.8-6.173a32.85 32.85 0 015.74.46c13.49 2.088 27.76 14.021 38.7 24.173 18.22 16.878 35.39 34.472 38.24 48.958 1.1 5.661.75 14.737.05 21.315-1 9.995-3.15 18.46-5.14 26.623-3.55 14.579-7.24 29.677-5.45 53.798.9 11.735 3.15 21.731 5.6 32.185zm-.8-86.134c1.99-8.157 4.09-16.622 5.09-26.518.7-6.58 1.05-15.554 0-21.113-2.8-14.33-19.92-31.824-38.04-48.65-10.88-10.048-25.07-21.881-38.35-24.022a37.842 37.842 0 00-5.64-.355c-9.93 0-22.51 3.107-34.64 6.167-9.09 2.245-17.73 4.387-24.57 5.05-3.39.308-6.89.462-10.48.46-14.48 0-28.41-2.549-41.83-5.097-12.49-2.245-24.22-4.439-35.56-4.439-13.23 0-23.91 3.008-33.594 9.384-16.92 11.217-21.518 26.821-23.962 42.174 3.844 32.284 26.956 53.753 47.426 72.772 13.58 12.496 27.81 22.491 41.59 32.184 12.83 8.971 26.01 18.256 38.94 29.73 30.46 26.873 45.78 64.869 40.94 101.586-1.25 9.434-4.64 19.275-7.94 28.863-3.3 9.541-6.69 19.432-7.84 28.764-2.19 16.575.7 29.532 8.49 38.555 6.94 8.11 17.67 12.544 30.35 12.544 12.58 0 25.62-4.486 34.85-11.933 6.39-5.256 11.53-11.828 15.67-17.541 17.93-24.733 32.76-58.447 45.39-103.065 1.6-25.5-2.35-42.686-6.2-59.162-2.44-10.554-4.69-20.549-5.54-32.332-1.79-24.224 1.86-39.369 5.45-54.006zm-40.94 84.401c-.7 3.008-1.15 6.068-1.7 9.433-1.8 11.729-3.94 25.14-15.72 31.464l-.1.052h-.1c-14.33-1.018-23.37-14.074-32.96-27.845-3.44-4.893-6.93-9.995-10.72-14.433-21.12-24.936-44.94-41.459-67.95-57.47-16.18-11.275-31.5-21.934-45.04-34.832-4.34-2.194-7.29-6.022-10.08-9.693-2.15-2.752-4.34-5.713-7.24-7.953-12.38-15.813-16.47-34.326-10.44-47.073 3.8-8.058 13.29-17.698 36.95-17.698 3.2 0 6.54.204 9.98.512 7.6.767 16.33 2.397 25.47 4.131 10.18 1.885 21.72 4.032 33.35 5.306 2.45.255 4.74.459 7.04.762 31.05 3.164 49.77 5.201 68.45 27.641 13.27 16.063 20.36 35.903 22.36 62.525 1.2 17.035.25 35.699-.6 52.117-.45 8.265-.85 16.066-.95 23.054zm.85-75.116c-1.95-26.471-9.04-46.154-22.17-62.066-18.47-22.387-36.04-24.173-68-27.541-2.29-.204-4.59-.46-7.04-.71-11.68-1.28-23.21-3.421-33.4-5.306-9.13-1.681-17.82-3.369-25.41-4.079-3.3-.359-6.62-.547-9.94-.563-23.31 0-32.65 9.433-36.39 17.342-5.85 12.544-1.85 30.748 10.33 46.253 2.9 2.298 5.14 5.201 7.34 8.006 2.9 3.875 5.6 7.446 9.84 9.535l.1.052c13.53 12.957 28.86 23.615 45.03 34.833 23.07 16.063 46.83 32.585 68.05 57.626 3.8 4.387 7.29 9.489 10.73 14.434 9.49 13.615 18.43 26.519 32.4 27.537 11.49-6.168 13.43-18.764 15.33-30.905.55-3.363 1-6.475 1.65-9.433.1-6.936.55-14.69.95-22.952.85-16.416 1.85-35.081.6-52.063zm-432.601-6.225c-5.092 48.446-9.887 94.244-46.88 126.988-24.863 21.98-65.053 45.385-103.544 45.385-23.465 0-42.732-8.872-57.319-26.418-12.579-15.249-19.066-33.046-26.511-53.7-.799-2.292-1.641-4.59-2.491-6.985-1.498-3.974-2.945-7.901-4.392-11.781-8.287-22.335-16.128-43.344-18.072-60.839-4.349-38.502 9.331-54.007 26.258-69 26.36-23.306 60.66-25.041 97.006-26.926 8.59-.459 18.77-1.378 29.498-2.396 16.928-1.584 36.051-3.317 52.077-3.317 17.275 0 28.609 1.99 34.748 6.173 25.762 17.442 22.669 59.82 20.22 77.157l-.598 5.659zm-19.969-82.207c-6.043-4.131-17.275-6.121-34.401-6.121-15.976 0-35.149 1.787-52.026 3.369-10.728.966-20.916 1.937-29.499 2.344-36.244 1.834-70.452 3.62-96.609 26.774-16.827 14.842-30.355 30.244-26.057 68.437 1.944 17.343 9.785 38.352 18.022 60.64 1.447 3.927 2.944 7.849 4.341 11.828.9 2.298 1.743 4.642 2.549 6.985 7.438 20.554 13.882 38.299 26.453 53.496 14.385 17.389 33.451 26.211 56.772 26.211 38.239 0 78.379-23.411 103.094-45.338 36.844-32.488 41.588-78.182 46.629-126.477l.648-5.707c2.495-17.232 5.493-59.255-19.917-76.441h.001zm-15.378 90.166c-4.443 41.814-8.241 77.92-41.392 104.694-15.372 12.497-43.179 27.082-70.69 27.082-13.68 0-25.214-3.619-34.351-10.81-25.855-20.451-37.095-62.985-38.887-93.174-2.052-34.884 10.483-65.533 33.494-81.852 21.118-15.045 47.981-16.575 76.486-18.158 6.242-.302 12.434-.658 18.626-.658 17.87 0 39.936 2.293 51.224 20.091 6.487 13.515 6.088 29.375 5.638 44.675-.053 2.752-.099 5.405-.15 8.11h.002zm-6.094-52.478c-11.083-17.442-32.904-19.74-50.62-19.74-6.192 0-12.334.309-18.626.716-28.311 1.584-55.116 3.008-76.133 17.954-22.767 16.215-35.201 46.662-33.156 81.288 1.749 30.09 12.938 72.416 38.649 92.715 8.986 7.086 20.362 10.71 33.898 10.71 27.31 0 54.965-14.585 70.344-27.03 32.848-26.622 36.493-60.89 41.04-104.188.051-2.652.102-5.305.251-8.057.343-15.249.742-31.009-5.648-44.368h.001zm413.332 45.793l-.15.105c-.99.74-1.9 1.596-2.69 2.548a13.458 13.458 0 01-3.4 2.961l-.05.047h-.15c-18.92-3.415-40.44-13.466-56.16-26.157-6.25-5.051-13.54-11.938-14.98-20.555l-.05-.152.1-.156a28.916 28.916 0 013.1-3.515c.85-.819 1.65-1.584 2.4-2.448l.05-.156h.15a83.56 83.56 0 018.88-.455c16.48 0 38.95 5.097 52.42 19.327 7.39 7.901 10.94 17.442 10.54 28.456v.151l-.01-.001zm-11.03-28.147c-13.28-14.126-35.55-19.121-51.93-19.121-2.9-.006-5.8.145-8.68.454-.75.864-1.55 1.687-2.3 2.449-1.11.982-2.1 2.096-2.94 3.316 1.44 8.364 8.58 15.096 14.67 19.992 15.63 12.648 37 22.644 55.77 26.058a12.968 12.968 0 003.04-2.751c.83-.943 1.73-1.814 2.7-2.601.35-10.714-3.04-20.046-10.33-27.796zM677.891 533.242c-11.081 7.345-23.465 11.322-34.949 11.322-15.127 0-27.806-6.679-36.842-19.379-20.967-29.524-11.484-85.372 18.576-108.574 8.136-6.377 22.061-13.923 41.983-13.923 4.807.001 9.604.427 14.335 1.274 21.017 3.619 31.947 20.602 31.594 49.011-.295 21.574-5.235 60.74-34.697 80.269zm2.995-128.617a85.76 85.76 0 00-14.227-1.224c-19.721 0-33.502 7.442-41.638 13.719-14.176 11.017-24.415 29.829-28.058 51.762-3.593 21.416.05 42.27 9.734 55.945 8.842 12.492 21.42 19.019 36.245 19.019 11.34 0 23.667-3.927 34.603-11.17 29.153-19.327 34.049-58.237 34.344-79.706.404-28.044-10.382-44.771-31.003-48.343v-.002zm675.544 318.996c-2.75 5.091-5.4 9.995-8.54 14.02l-.15.152c-4.34 5.76-11.73 15.352-22.02 13.768-11.08-1.678-25.71-15.144-23.06-34.93 2.09-15.808 12.48-27.386 32.7-36.414 1.3-.559 2.59-1.17 3.94-1.734 9.74-4.177 18.97-8.157 23.22-17.643 4.39-18.762 5.24-44.059 6.19-70.938.74-22.234 1.55-45.282 4.49-64.92 5.64-37.892 24.61-60.431 58.02-69.053a80.47 80.47 0 019.23-1.937v.715c-3.06.449-6.1 1.078-9.09 1.885-33.1 8.466-51.92 30.906-57.51 68.49-2.9 19.635-3.7 42.633-4.49 64.869-.9 26.879-1.8 52.222-6.2 71.142-4.39 9.793-13.73 13.771-23.61 18.003-1.35.61-2.65 1.117-3.95 1.733-19.97 8.873-30.2 20.294-32.25 35.902-2.59 19.33 11.63 32.486 22.47 34.113 9.88 1.534 17.12-7.849 21.42-13.415l.15-.151c3.09-4.076 5.74-8.872 8.48-13.97 8.64-15.961 17.58-32.483 43.14-28.149 12.08 1.993 25.67 8.567 41.44 19.941v.864c-15.88-11.521-29.46-18.152-41.54-20.141-25.11-4.232-33.94 12.086-42.48 27.798zm67.45-90.472c-14.79-16.628-22.67-41.208-21.67-67.522 1-25.348 10.28-48.499 24.86-62.014a38.892 38.892 0 0113.38-6.423v.658a40.188 40.188 0 00-12.93 6.225c-14.48 13.466-23.66 36.461-24.66 61.554-1 26.11 6.84 50.592 21.47 67.112a96.58 96.58 0 0016.12 14.129v.814a89.618 89.618 0 01-16.57-14.533zm-599.856 4.435c.648-4.536 2.694-9.995 4.392-14.33 14.079-35.797 47.13-73.334 71.143-94.548 16.477-14.539 30.157-23.051 40.642-25.197a33.065 33.065 0 017.24-.763c28.656 0 63.849 29.782 66.049 55.893a20.77 20.77 0 01-.75 3.828c-.4 1.938-.9 3.875-.7 5.964v.104l-.05.047a536.099 536.099 0 01-34.448 68.745c-5.688 9.587-11.431 18.768-18.972 26.471-18.22 18.612-49.973 31.667-77.032 31.667-14.976 0-27.51-3.874-37.243-11.368-16.278-12.601-23.119-28.258-20.271-46.513zm57.514 57.172c26.911 0 58.414-12.956 76.536-31.468 7.488-7.598 13.231-16.778 18.921-26.263a541.307 541.307 0 0034.345-68.593c-.07-2.07.2-4.139.8-6.121.32-1.209.57-2.435.75-3.672-2.25-25.803-37.092-55.178-65.45-55.178a35.663 35.663 0 00-7.142.664c-10.383 2.192-23.962 10.605-40.336 25.086-23.915 21.218-56.865 58.599-70.898 94.298-1.697 4.281-3.744 9.686-4.443 14.177-2.745 18.003 4.044 33.454 20.123 45.846 9.586 7.395 21.968 11.223 36.794 11.223v.001zm5.143-114.491c14.427-13.463 31.604-23.208 44.932-25.348a39.663 39.663 0 017.188-.663c8.287 0 14.928 2.653 19.82 7.854 5.741 6.068 8.589 15.604 8.136 26.827-5.843 25.651-11.732 46.508-29.405 61.198-11.135 9.385-28.308 15.452-43.583 15.452-18.374 0-31.104-8.622-34.902-23.562-1.094-4.439-.895-10.862-.246-15.301 2.196-14.89 12.432-31.825 28.06-46.457zm-27.111 61.553c3.696 14.685 16.124 23.051 34.2 23.051 15.173 0 32.101-6.015 43.184-15.248 17.474-14.586 23.312-35.292 29.156-60.792.449-10.961-2.398-20.293-7.986-26.314-4.693-4.998-11.237-7.547-19.324-7.547a44.446 44.446 0 00-7.091.612c-27.658 4.536-67.744 39.881-72.488 71.246-.597 4.334-.797 10.657.349 14.992zM195.52 12.608c-16.128 8.006-35.1 8.821-50.825 2.241A50.207 50.207 0 01125.025.008h.799a47.772 47.772 0 0019.065 14.178c15.581 6.58 34.402 5.765 50.328-2.141 5.192-2.548 10.088-6.58 14.782-12.037h.893c-4.846 5.818-9.987 9.948-15.372 12.6zm571.89 27.997c-6.294 4.536-12.285 9.384-18.072 14.022-14.028 11.222-27.259 21.73-41.841 26.726-16.32 8.309-31.929 12.473-46.828 12.492a75.918 75.918 0 01-35.295-8.617C592.521 68.348 574.002 31.48 566.91.008h.699c7.092 31.213 25.408 67.883 58.06 84.611 24.416 12.543 51.876 11.217 81.576-3.88 14.532-4.945 27.712-15.5 41.694-26.722 5.787-4.59 11.779-9.384 18.118-13.975 6.794-4.945 13.834-9.739 20.669-14.33C800.108 17.3 812.243 9.09 822.925.008h1.099c-10.885 9.337-23.266 17.698-35.945 26.268-6.84 4.637-13.88 9.38-20.669 14.329zm-235.953 12.8c-4.442 11.013-14.227 16.37-29.901 16.37-7.935 0-16.171-1.377-22.817-2.5h-.194a26.759 26.759 0 00-4.644-.356c-6.243 0-12.636 1.885-18.771 3.724-3.146.966-6.494 1.938-9.691 2.6-2.599.611-5.141 1.07-7.69 1.63-10.526 2.094-21.463 4.287-31.348 8.924a389.82 389.82 0 01-11.78 5.306c-19.274 8.518-39.196 17.338-52.12 34.477-.807 1.071-1.498 2.141-2.254 3.212-9.029 13.666-16.877 28.351-24.358 42.582-8.496 16.063-17.272 32.539-27.864 47.63-10.231 14.738-24.012 31.01-37.339 46.766a2960.893 2960.893 0 00-13.233 15.812c-21.168 25.599-41.134 49.721-77.984 49.721h-.05c-9.439 0-19.419-1.531-30.651-4.591-31.903-8.768-88.221-30.701-107.488-78.228-5.098-12.596-8.49-30.195-12.09-48.754-2.742-14.027-5.586-28.56-9.186-40.645v-2.297c3.953 12.544 6.948 27.949 9.792 42.785 3.643 18.617 7.034 36.112 12.081 48.655 19.174 47.323 75.284 69.053 107.036 77.821 11.188 3.112 21.175 4.59 30.506 4.59h.05c36.497 0 56.42-24.017 77.436-49.516 4.241-5.103 8.64-10.304 13.277-15.761 13.284-15.755 27.065-32.074 37.346-46.713 10.484-15.045 19.268-31.62 27.757-47.578 7.538-14.231 15.379-28.968 24.415-42.639.698-1.071 1.497-2.241 2.297-3.265 13.032-17.232 32.997-26.11 52.322-34.674a627.125 627.125 0 0011.779-5.306c9.987-4.69 20.923-6.883 31.507-9.024a361.993 361.993 0 007.69-1.585c3.139-.715 6.437-1.681 9.634-2.6 6.192-1.839 12.578-3.776 18.972-3.776 1.585.01 3.168.131 4.737.36l.303.047c6.537 1.123 14.731 2.448 22.615 2.448 15.329 0 24.962-5.201 29.261-15.86 4.485-10.966 2.988-29.579 1.648-46.05-.201-2.5-.403-4.846-.554-7.143h.698c.152 2.297.303 4.642.504 7.091 1.34 16.528 2.794 35.244-1.656 46.31zM255.33 20.916c-19.821 27.436-55.022 43.757-94.111 43.757-9.435.03-18.844-.98-28.058-3.008C98.406 53.812 87.282 29.592 82.336.008h.648c1.548 9.384 3.7 18.157 7.041 26.067 8.035 18.973 21.816 30.085 43.236 34.931a128.08 128.08 0 0027.958 3.008c38.887 0 73.836-16.267 93.557-43.5 2.196-5.813 4.046-12.852 5.846-20.503h.699a181.457 181.457 0 01-5.94 20.862l-.051.044zm189.511 14.335c-17.676 2.6-34.545 7.954-50.774 13.155-10.483 3.369-21.362 6.836-32.4 9.536a239.743 239.743 0 01-20.318 4.078 114.499 114.499 0 01-16.726 1.483c-9.684 0-15.427-2.04-17.23-6.12-4.932-10.862-8.733-34.477-8.935-57.376h.648c.202 22.8 4.003 46.258 8.842 57.12 1.699 3.776 7.337 5.66 16.675 5.66a113.514 113.514 0 0016.625-1.425 241.517 241.517 0 0020.268-4.084c11.03-2.7 21.816-6.167 32.306-9.535 16.323-5.202 33.199-10.606 50.969-13.207 17.474-2.548 31.406-14.79 39.593-34.53h.749c-8.288 20.148-22.472 32.593-40.292 35.245zM55.472 17.654c.9 25.092 1.7 46.817 18.022 59.616 16.978 13.416 46.635 17.238 68.307 19.996 2.145.303 4.291.61 6.285.864 3.857.516 7.744.77 11.635.762 22.068 0 45.584-7.598 68.35-14.894 20.362-6.475 41.378-13.259 61.056-14.428h.05l.051.052c11.232 3.265 14.025 15.5 12.931 25.852-3.197 40.44-17.129 73.538-48.233 114.279-6.235 8.162-12.132 16.476-17.769 24.534-9.692 13.562-18.771 26.465-29.405 38.602-15.927 18.309-35.899 27.49-59.415 27.49-27.259 0-57.91-12.951-84.124-35.645-27.008-29.884-31.054-69.46-32.897-107.451-.151-2.961-.202-6.021-.303-9.332-.403-15.249-.842-34.273-8.186-43.657C15.383 96.032 7.801 89.656.004 84.047v-.815c7.992 5.713 15.732 12.137 22.37 20.707 7.438 9.483 7.891 28.606 8.338 43.959.1 3.313.151 6.424.302 9.333 1.793 37.839 5.84 77.361 32.695 107.043 26.064 22.539 56.52 35.496 83.628 35.496 23.314 0 43.186-9.233 58.911-27.286 10.591-12.189 19.728-24.987 29.354-38.655 5.645-8.006 11.535-16.267 17.777-24.483 31.003-40.643 44.935-73.689 48.074-113.979 1.102-9.995-1.54-21.927-12.376-25.092-19.52 1.175-40.493 7.854-60.812 14.382-22.816 7.295-46.375 14.893-68.544 14.893a97.155 97.155 0 01-11.736-.767c-1.994-.303-4.14-.56-6.292-.815-21.716-2.805-51.517-6.68-68.545-20.142-16.624-13.056-17.423-34.832-18.374-60.18-.194-5.248-.346-10.706-.691-16.163A12.975 12.975 0 0153.925 0h.705c0 .512.05.919.05 1.43.397 5.518.598 10.923.792 16.224zM16.031 5.772C15.289 15.206 7.8 23.57.004 23.57v-.714c7.495 0 14.637-8.005 15.329-17.134.2-1.898.216-3.811.05-5.713h.648a31.46 31.46 0 010 5.764zm93.117 126.273c4.596.028 9.178.505 13.68 1.426 10.181 2.042 21.068 5.306 32.653 8.773 12.924 3.875 26.409 7.954 39.189 10.199 11.83 2.193 16.971 7.546 15.624 16.471v.052c-4.14 8.925-7.337 18.867-10.735 29.375-7.286 22.951-14.882 46.662-33.3 59.005-8.683 5.761-19.274 8.82-30.6 8.82-18.425 0-37.253-7.854-50.53-21.061-10.879-10.914-18.82-28.659-21.261-47.48-2.6-19.838 1.296-38.655 10.728-51.61 6.292-8.617 19.57-13.97 34.552-13.97zM85.626 244.596c13.133 13.106 31.86 20.91 50.033 20.91 11.232 0 21.665-3.008 30.254-8.768 18.274-12.188 25.762-35.751 33.099-58.598 3.341-10.507 6.494-20.451 10.634-29.375 1.246-8.569-3.492-13.567-15.077-15.604-12.78-2.35-26.309-6.323-39.341-10.251-11.484-3.467-22.42-6.731-32.507-8.773a69.912 69.912 0 00-13.573-1.379c-14.781 0-27.806 5.257-33.998 13.719-20.52 28.045-11.038 76.648 10.476 98.116v.003zm788.328 191.143c-3.395 6.579-6.892 13.363-9.785 20.095-2.597 5.76-5.194 11.827-7.74 17.744-15.526 36.054-31.554 73.387-54.917 103.321-8.937 11.473-19.77 22.44-30.204 33.15-10.035 10.147-19.472 19.683-27.014 29.375a145.778 145.778 0 00-9.883 14.53c-6.441 10.199-12.528 19.839-22.671 26.467l-.094.051-2.902-.203c-38.736-2.345-72.237-4.387-107.935-11.014-25.358-4.695-43.337-9.739-53.273-14.946-20.52-10.757-26.107-29.985-32.097-50.384a233.93 233.93 0 01-1.894-6.375c-8.69-28.863-21.276-58.139-53.87-76.443l-.101-.156c-.252-.303-.504-.611-.799-.914-6.747-3.624-13.479-7.296-20.268-10.967-11.787-6.324-23.969-12.956-36-19.275-5.191-2.757-10.339-5.616-15.43-8.313-7.884-4.335-16.07-8.774-24.156-12.904-5.594-2.752-10.541-6.58-15.429-10.252-1.203-.918-2.448-1.885-3.651-2.804-4.493-3.368-9.482-6.784-15.17-9.024-10.685-4.287-22.522-4.793-33.898-5.357-9.893-.408-20.073-.92-29.657-3.776-9.136-2.7-15.48-5.097-20.772-13.056-17.121-25.491-8.438-44.574 5.595-68.692 14.774-25.296 32.745-45.031 53.467-58.598a92.733 92.733 0 0111.628-6.22c4.349-2.088 8.791-4.23 12.78-7.086 4.651-3.264 9.144-6.836 13.486-10.303 3.549-2.805 7.142-5.714 10.828-8.466 15.034-11.066 33.005-23.358 53.18-30.596 6.681-2.397 14.623-2.857 20.116-2.857a87.32 87.32 0 0116.272 1.478c6.243 1.224 11.283 4.026 16.625 7.035 2.247 1.278 4.644 2.605 7.092 3.827 2.693 1.224 5.494 2.193 8.187 3.16a60.157 60.157 0 0110.382 4.386c8.194 4.59 16.128 9.949 23.767 15.15 7.387 4.997 15.027 10.146 22.867 14.632 37.044 21.27 68.796 33.255 99.699 37.84a189.418 189.418 0 0027.813 2.094 181.258 181.258 0 0034.15-3.212c8.683-1.634 17.618-4.183 26.309-6.684 15.225-4.334 30.899-8.817 46.28-8.817a64.587 64.587 0 0123.363 4.026c14.677 5.509 27.76 16.936 41.64 29.072 7.086 6.167 14.376 12.543 22.316 18.612 1.794 1.326 4.043 2.908 6.589 4.694 5.639 4.079 12.679 9.073 18.72 14.278 11.232 9.844 14.328 18.821 10.634 31.108-3.094 10.097-8.437 20.554-14.178 31.566l.003.003zm3.144-62.118c-6.043-5.249-13.032-10.2-18.72-14.278-2.546-1.786-4.744-3.363-6.544-4.741-7.985-6.017-15.326-12.445-22.413-18.618-13.782-12.084-26.809-23.457-41.389-28.962a65.878 65.878 0 00-23.164-4.032c-15.281 0-30.904 4.485-46.084 8.872-8.733 2.501-17.669 5.049-26.41 6.731a186.159 186.159 0 01-34.243 3.164 183.042 183.042 0 01-27.864-2.094c-31.097-4.589-62.856-16.673-100.001-37.939-7.833-4.491-15.472-9.692-22.91-14.637-7.596-5.201-15.581-10.507-23.666-15.097a62.601 62.601 0 00-10.289-4.335 74.123 74.123 0 01-8.23-3.264c-2.505-1.169-4.896-2.548-7.142-3.77-5.343-2.961-10.332-5.818-16.431-6.985a86.362 86.362 0 00-16.171-1.53c-5.443 0-13.277.558-19.922 2.903-20.016 7.191-38.045 19.484-52.971 30.55a307.839 307.839 0 00-10.836 8.413c-4.392 3.42-8.884 6.985-13.478 10.303a91.383 91.383 0 01-12.931 7.139 89.807 89.807 0 00-11.484 6.173c-20.664 13.566-38.592 33.196-53.266 58.342-13.932 23.969-22.514 42.889-5.645 68.029 5.192 7.802 11.434 10.099 20.369 12.753 9.533 2.903 19.728 3.312 29.513 3.822 11.477.459 23.306 1.018 34.193 5.352 5.688 2.246 10.685 5.714 15.228 9.082 1.303.914 2.498 1.885 3.693 2.804 4.846 3.673 9.836 7.494 15.279 10.252 8.186 4.078 16.329 8.512 24.213 12.799 5.04 2.752 10.289 5.661 15.473 8.361a3785.99 3785.99 0 0135.95 19.28 1928.653 1928.653 0 0020.318 11.013l.101.053c.309.298.594.621.85.966 32.752 18.512 45.331 47.886 54.072 76.855.648 2.14 1.296 4.287 1.893 6.376 5.94 20.246 11.585 39.37 31.803 49.924 9.936 5.256 27.756 10.303 53.071 14.946 35.647 6.625 69.149 8.668 107.885 11.013l2.649.152c9.987-6.528 16.025-16.011 22.415-26.158a161.315 161.315 0 019.887-14.586c7.638-9.692 17.075-19.327 27.059-29.427 10.435-10.71 21.319-21.724 30.153-33.15 23.318-29.884 39.391-67.162 54.871-103.118 2.546-5.917 5.143-11.985 7.689-17.745 2.996-6.731 6.488-13.567 9.882-20.147 5.64-11.066 10.984-21.363 14.075-31.517 3.594-11.934.649-20.708-10.383-30.295l.003.003zm-62.208 108.37l-1.296 5.05c-13.532 51.404-33.603 81.902-74.143 112.242l-.945.768c-21.821 16.319-40.692 30.497-61.658 37.276-10.491 3.472-23.321 5.257-37.044 5.257h-.051c-18.223 0-36.799-3.264-49.629-8.669-33.898-14.33-46.325-44.623-60.603-79.81-18.777-46.049-51.681-105.619-101.556-127.954-9.029-4.026-17.769-4.846-27.007-5.713-3.542-.303-7.236-.71-10.98-1.224-14.134-2.042-29.909-4.998-48.326-9.073-2.6-.512-5.199-1.123-7.791-1.734-13.485-3.06-31.305-11.734-37.145-26.012-4.341-10.553-3.693-20.194 1.743-28.607 16.279-24.993 72.345-33.556 95.364-33.61h.446c10.188 0 20.621 1.071 30.701 2.141 5.738.611 11.635 1.275 17.323 1.635 9.691.71 17.583 3.52 27.317 9.739 10.03 6.423 20.815 9.484 33.847 9.484 9.735 0 19.62-1.63 30.053-3.313 3.146-.564 6.444-1.07 9.734-1.584 13.68-2.042 28.311-2.961 46.181-2.961 11.081 0 22.27.36 33.048.715 10.735.308 21.773.664 32.652.664 19.822 0 35.799-1.224 50.48-3.823 4.291-.82 8.935-1.938 13.874-3.112 10.584-2.601 22.569-5.557 34.599-5.557a60.574 60.574 0 0118.174 2.549c27.811 8.564 51.072 43.296 55.368 70.425 1.6 10.154 1.35 20.555-.701 32.743-3.197 18.56-7.486 34.832-12.031 52.065l.002.003zm12.027-84.703c-4.243-26.931-27.258-61.352-54.814-69.867a61.964 61.964 0 00-18.026-2.554c-11.979 0-23.91 2.909-34.448 5.509-4.888 1.228-9.583 2.345-13.924 3.169-14.681 2.647-30.708 3.823-50.58 3.823-10.88 0-21.917-.309-32.652-.664-10.779-.355-21.968-.715-33.048-.715-17.77 0-32.451.971-46.08 2.961-3.298.559-6.588 1.071-9.735 1.584-10.483 1.681-20.369 3.264-30.153 3.264-13.133 0-24.063-3.013-34.251-9.489-9.633-6.172-17.424-8.924-26.964-9.639a669.863 669.863 0 01-17.316-1.63c-10.037-1.071-20.52-2.141-30.657-2.141h-.447c-22.917.052-78.631 8.517-94.766 33.249-5.335 8.209-5.94 17.642-1.692 28.049 5.745 14.026 23.313 22.539 36.641 25.599 2.548.564 5.148 1.123 7.74 1.733 18.424 4.033 34.2 6.985 48.326 9.029 3.701.512 7.394.865 10.937 1.176 9.288.913 18.122 1.734 27.209 5.812 50.126 22.387 83.073 82.103 101.952 128.308 14.227 34.984 26.553 65.225 60.206 79.404 12.78 5.405 31.198 8.622 49.378 8.622h.05c13.68 0 26.41-1.786 36.842-5.155 20.866-6.731 39.644-20.857 61.507-37.229l.951-.762c40.336-30.244 60.356-60.588 73.838-111.838l1.296-5.05c4.59-17.238 8.885-33.556 11.983-52.018 2.098-12.146 2.295-22.496.697-32.54zM1047.84 65.593c-1.15 9.588-2.59 27.385.65 39.318 5.39 19.687 20.97 36.618 35.99 53.041 21.27 23.098 43.24 47.023 36.5 78.995-3.65 17.233-12.73 27.944-27.96 32.79-13.18 4.23-29.41 3.673-47.68 2.653-33.35-1.89-55.963 3.723-69.097 8.82-13.277 5.202-25.46 13.771-37.34 22.132-15.879 11.17-30.904 21.776-47.88 24.123a49.339 49.339 0 01-18.773-.768c-15.879-3.571-27.864-11.729-40.541-20.397-21.568-14.638-43.833-29.834-87.068-21.015-9.488 1.891-18.92 4.795-28.91 7.808-31.853 9.634-64.8 19.531-101.643-.413-33.3-17.081-54.273-48.446-74.491-78.792-9.432-14.126-19.217-28.81-30.002-41.663-13.832-16.423-32.66-38.91-55.772-31.108-9.28 3.061-18.864 4.59-28.159 6.068-14.724 2.398-29.901 4.847-43.581 13.615-9.785 6.277-17.374 15.201-24.761 23.87-3.449 4.026-7.042 8.209-10.786 12.084-8.287 8.517-14.976 18.565-21.47 28.252-5.544 8.262-11.232 16.732-17.921 24.33-8.986 8.105-16.87 15.194-26.057 23.662-11.088 10.35-21.226 22.643-31.01 34.471-18.764 22.8-36.439 44.269-59.559 51.203-16.322 4.946-33.199 4.283-54.72-2.041-11.476-3.415-26.654-9.996-37.339-14.993a499.153 499.153 0 01-65.203-36.717A90.788 90.788 0 010 263.666v-1.786a89.953 89.953 0 0033.56 42.43 502.96 502.96 0 0065.195 36.717c10.635 4.945 25.762 11.578 37.196 14.946 21.47 6.272 38.195 6.935 54.367 2.088 22.917-6.883 40.543-28.304 59.263-51 9.785-11.828 19.922-24.173 31.104-34.524a2033.19 2033.19 0 0126.013-23.714c6.639-7.498 12.277-16.01 17.821-24.225 6.487-9.687 13.284-19.731 21.52-28.304 3.795-3.875 7.337-8.058 10.779-12.137 7.394-8.668 15.033-17.642 24.912-23.917 13.788-8.872 29.059-11.322 43.841-13.667 9.28-1.53 18.871-3.059 28.008-6.121 23.558-7.906 42.631 14.737 56.512 31.312 10.836 12.957 20.571 27.543 30.053 41.716 20.225 30.345 41.091 61.658 74.189 78.588 36.648 19.839 69.494 9.943 101.246.36 9.988-3.013 19.425-5.865 28.959-7.807 43.441-8.813 65.857 6.381 87.522 21.119 12.633 8.621 24.565 16.732 40.392 20.298a48.567 48.567 0 0018.471.716c16.776-2.246 31.804-12.8 47.627-24.022 11.835-8.314 24.166-16.983 37.494-22.184 13.133-5.097 35.846-10.758 69.346-8.872 31.31 1.785 66.85 3.822 74.99-34.884 6.59-31.612-15.23-55.434-36.35-78.432-15.13-16.476-30.75-33.459-36.14-53.292-3.15-11.374-2.15-27.796-.75-39.574 2.3-18.925 7.74-38.351 13.53-58.854.6-2.193 1.2-4.387 1.85-6.632h.7c-.65 2.298-1.3 4.543-1.95 6.836-5.74 20.502-11.23 39.83-13.43 58.75z" fill="#000" fill-opacity=".3"/><path fill-rule="evenodd" clip-rule="evenodd" d="M2141.23 29.04c1.35 1.176 2.6 2.55 3.84 3.83a39.505 39.505 0 003.5 3.568c22.15 20.255 45.76 31.378 66.33 31.378 20.36 0 37.58-10.308 51.16-30.61A128.891 128.891 0 002282.87.008h-.7a130.395 130.395 0 01-16.62 36.837c-13.52 20.052-30.54 30.307-50.65 30.307-20.42 0-43.82-11.123-65.94-31.174-1.14-1.071-2.24-2.294-3.44-3.568a126.27 126.27 0 00-3.84-3.929c-9.93-8.882-20.61-17.042-30.94-24.952-1.55-1.17-3.05-2.293-4.59-3.521h-1.1c1.75 1.38 3.54 2.707 5.34 4.085 10.33 7.905 20.96 16.07 30.84 24.947zm-657.51 65.765c14.37-13.672 29.25-27.856 38.78-48.11 4.79-10.309 9.54-26.584 11.73-46.683h-.69c-2.15 20.004-6.89 36.173-11.63 46.43-9.44 20.05-24.26 34.183-38.63 47.855-16.73 15.916-34 32.294-42.53 58.212-.3.765-.55 1.549-.75 2.347v2.298c.4-1.53.9-3.014 1.35-4.388 8.53-25.767 25.76-42.146 42.37-57.96zm726.29-58.519c7.03 0 13.87-2.502 20.16-7.398 5.89-4.538 8.78-9.184 11.83-13.98 1.25-2.042 2.59-4.132 4.14-6.275a75.312 75.312 0 003.05-8.625h-.7c-.85 2.81-1.8 5.564-2.9 8.218a69.287 69.287 0 00-4.14 6.327c-3 4.796-5.89 9.284-11.63 13.771-6.29 4.849-12.88 7.299-19.81 7.299-18.52 0-36.29-16.838-51.96-31.634-1.45-1.374-2.8-2.654-4.19-3.981h-1c1.55 1.484 3.09 2.91 4.69 4.44 15.77 14.948 33.69 31.838 52.46 31.838zm-757.88 177.956c3.34-17.654 6.44-34.335 11.23-46.121 8.08-20.1 24.9-36.99 42.67-54.899 10.98-10.966 22.26-22.293 31.79-34.796 11.93-15.56 19.92-29.027 26.6-44.946 3.95-9.388 7.35-20.203 10.64-30.662.3-.919.65-1.89.89-2.81h-.69c-.25.865-.55 1.735-.85 2.608-3.25 10.454-6.64 21.274-10.58 30.61-6.69 15.867-14.63 29.283-26.55 44.795-9.54 12.398-20.82 23.774-31.7 34.695-17.86 18.01-34.73 34.946-42.87 55.15-4.79 11.838-7.94 28.572-11.23 46.278-3.19 17.042-6.49 34.69-11.38 47.547-.05.095-.09.2-.1.308v1.787c.22-.625.47-1.239.75-1.839 4.94-12.957 8.24-30.612 11.38-47.705zm54.5 220.001c23.21 9.488 52.06 21.222 63.09 45.255.74 13.111-3.75 24.283-8.54 36.069-6.74 16.53-14.37 35.255-10.08 64.543 3.3 22.241 16.07 36.529 30.89 53.06 6.14 6.833 12.39 13.876 18.37 21.884 15.62 21.024 26.3 44.748 34.59 65.209 8.33 20.352 14.87 36.424 36.73 41.784 13.08 3.213 31.35 5.46 43.87 6.786 6.37.735 12.76 1.125 19.17 1.167 9.63 0 17.92-1.066 24.9-3.155 14.82-4.496 24.26-16.844 36.14-32.455 3.54-4.639 7.18-9.387 11.33-14.437 2.79-3.469 6.48-7.246 10.43-11.327 8.18-8.416 16.62-17.141 18.96-24.134.85-2.701.6-5.151.4-7.956a38.7 38.7 0 01-.15-7.299l.05-.152-.1-.101c-7.93-10.709-17.57-19.283-26.9-27.653-15.82-14.179-30.84-27.548-36.48-49.538-3-11.582-1.9-23.98 3.29-37.909 5.54-14.69 18.42-30.866 36.38-45.458 8.09-6.582 16.67-13.416 25.76-20.714 41.67-33.211 88.94-70.865 114.74-103.674l.05-.204c.85-4.028.55-8.62-.6-13.672-3.34-13.777-13.87-30.151-28.95-44.947-14.37-14.032-30.69-24.544-43.72-28.217a77.583 77.583 0 00-5.29-1.327c-17.36-3.976-35.38-1.224-52.75 1.432-15.03 2.294-29.3 4.488-43.13 2.654-29.89-4.034-51.4-24.494-58.99-56.127-9.98-41.528 17.62-67.599 44.32-92.853 19.67-18.673 40.08-37.909 45.42-63.316 5.09-23.927-1.55-49.747-5.94-66.836-1.75-6.89-3.89-13.777-6.19-20.616h-.7a283.989 283.989 0 016.24 20.82c4.35 16.99 10.98 42.705 5.94 66.477-5.29 25.208-25.61 44.391-45.27 62.959-26.8 25.359-54.55 51.582-44.46 93.523 7.63 31.885 29.44 52.548 59.59 56.581 13.87 1.834 28.14-.308 43.26-2.602 17.32-2.654 35.24-5.36 52.51-1.431 2.15.459 4.24 1.023 5.29 1.327 25.86 7.246 64.98 42.961 72.12 72.604 1.21 4.35 1.44 8.911.7 13.363-25.8 32.757-72.97 70.41-114.59 103.569-9.14 7.246-17.72 14.085-25.81 20.663-18.01 14.696-30.99 30.918-36.53 45.818-5.24 14.033-6.33 26.53-3.34 38.264 5.74 22.193 20.76 35.714 36.68 49.951 9.28 8.264 18.82 16.833 26.75 27.396-.17 2.43-.14 4.869.1 7.294.3 2.758.5 5.104-.35 7.653-2.29 6.839-10.63 15.561-18.82 23.929-3.88 4.034-7.63 7.857-10.43 11.326-4.14 4.999-7.83 9.797-11.37 14.494-11.83 15.503-21.16 27.75-35.79 32.195-11.13 3.364-25.45 4.027-43.77 1.988-12.58-1.383-30.79-3.623-43.82-6.786-21.51-5.201-28.05-21.173-36.28-41.379-8.34-20.511-18.97-44.288-34.64-65.413-5.99-8.009-12.28-15.047-18.37-21.885-14.77-16.431-27.5-30.663-30.74-52.704-4.29-29.08 3.29-47.705 9.98-64.183 4.79-11.887 9.38-23.113 8.63-36.43l-.04-.152c-11.19-24.236-40.18-36.121-63.49-45.562-6.34-2.601-12.88-5.259-20.01-6.833a270.23 270.23 0 00-46.87-6.225v.716c15.73.661 31.36 2.728 46.72 6.175 7.08 1.53 13.62 4.179 19.91 6.734zm338.54-414.387c1.8 7.043 3.89 14.085 5.93 20.971 4.4 15.151 8.54 29.486 10.19 42.297 1.25 9.132 1.25 18.568.05 25.151-3.45 19.795-16.47 35.203-29.05 50.155-14.43 17.089-29.35 34.847-30.49 59.485 1.54 21.943 25.75 25.156 51.35 28.473 4.7.664 9.59 1.275 14.28 2.038 18.76 3.061 40.37 9.185 62.48 17.65 7.74 3.01 15.18 6.735 22.41 10.36 13.78 6.988 26.8 13.62 42.03 15.355 1.97.207 3.95.31 5.94.309 10.33 0 19.31-2.963 27-5.768 7.78-2.806 14.47-5.815 20.96-8.824 13.92-6.275 27.05-12.194 47.31-14.033 3.63-.391 7.28-.578 10.93-.559 22.02 0 40.43 5.919 58.3 11.629 15.37 5 29.99 9.644 45.11 9.644 2.96.022 5.91-.164 8.84-.559 22.96-2.962 40.62-15.103 53.9-37.197 11.74-19.487 18.47-44.131 24.11-67.856 1.65-6.938 4.54-19.946 5.53-29.387 1-8.876-.34-15.354-4.19-19.848-6.93-8.212-20.85-8.724-36.98-9.232-7.34-.255-14.87-.511-22.4-1.53-31.75-4.185-58.35-8.37-87.8-20.97-24.26-10.309-48.51-23.213-64.63-32.142-27.05-15.154-57.69-33.878-79.31-65.46h-.79c21.71 31.89 52.5 50.87 79.8 66.074 16.07 8.98 40.33 21.838 64.64 32.193 29.49 12.549 56.2 16.785 87.99 21.018 7.53.972 15.12 1.224 22.46 1.531 15.97.511 29.79.971 36.58 8.98 3.64 4.336 4.99 10.662 4 19.336-1.05 9.388-3.9 22.35-5.55 29.288-11.17 47.193-27.25 98.11-77.46 104.541-2.9.348-5.82.516-8.74.504-15.01 0-29.54-4.639-44.96-9.592-17.87-5.71-36.33-11.629-58.45-11.629-3.64 0-7.34.151-10.97.504-20.37 1.839-33.55 7.858-47.52 14.185-6.49 2.909-13.17 5.971-20.91 8.776-7.64 2.754-16.62 5.664-26.8 5.664-1.95.001-3.9-.102-5.84-.308-15.08-1.683-28.05-8.265-41.82-15.201-7.24-3.674-14.68-7.449-22.47-10.407-22.15-8.519-43.82-14.642-62.58-17.705a371.41 371.41 0 00-14.33-1.99c-25.3-3.365-49.26-6.531-50.8-27.904 1.14-24.288 16.02-41.942 30.34-59.031 12.68-14.948 25.71-30.511 29.25-50.41 1.2-6.683 1.1-16.17-.05-25.407-1.7-12.91-5.89-27.193-10.28-42.344-2-6.891-4.05-14.033-5.94-21.023-1.2-4.539-2.45-9.185-3.75-13.673-.55-1.939-1.04-3.981-1.64-5.972h-.7c.6 2.095 1.19 4.133 1.69 6.176 1.3 4.492 2.55 9.081 3.8 13.674zm-358.65 25.51c6.78-10.762 12.87-23.723 12.97-45.358h-.65c-.14 21.43-6.13 34.34-12.87 45.003-8.59 13.52-20.96 21.63-34.14 30.257-3.94 2.602-7.93 5.204-11.83 8.01v.815c3.99-2.858 8.14-5.56 12.18-8.213 13.18-8.675 25.65-16.841 34.34-30.514zm402.37 15.815c4.04 9.289 8.28 18.777 9.68 28.724 3.94 27.245-9.83 44.954-23.11 62.145-9.13 11.682-17.66 22.706-20.31 36.277a27.634 27.634 0 00-.35 8.218c.1 1.426.2 2.954.2 5.047v.104c3.39 9.644 13.52 16.431 21.46 20.407 28.65 14.493 75.32 21.324 109.35 26.326 5.14.735 10.33 1.11 15.52 1.123 13.23 0 25.51-2.294 38.48-4.691 13.88-2.555 28.25-5.259 44.82-5.259 4.4 0 8.89.204 13.23.559.9.104 3.4.256 6.59.46 4.69.256 10.58.564 14.72.919 13.87 1.071 24.86 3.574 35.44 6.019 14.17 3.218 27.44 6.275 47.16 6.275 2.05 0 4.19-.048 6.34-.1 15.67-2.503 30.05-19.388 35.79-42.041 4.73-18.725 3.64-43.624-13.63-57.396-20.31-16.175-79.51-30.359-111.3-32.961-6.79-.611-12.43-.664-17.87-.664-6.09-.052-12.33-.098-20.51-.815-21.92-2.043-40.03-10.866-60.65-29.536-25.5-23.166-39.32-41.075-59.09-76.533a88.592 88.592 0 01-5.98-13.78h-.75a90.477 90.477 0 006.19 14.085c19.76 35.555 33.59 53.467 59.24 76.731 20.66 18.777 38.93 27.654 60.99 29.696 8.18.763 14.47.815 20.56.815 5.7.053 11.03.104 17.82.664 31.69 2.654 90.69 16.734 111 32.857 16.97 13.52 17.97 38.164 13.33 56.684-5.65 22.345-19.87 39.027-35.24 41.53-2.1.052-4.19.099-6.24.099-19.57 0-32.94-3.108-47.02-6.274-10.63-2.446-21.6-4.948-35.53-6.019-4.14-.308-10.03-.716-14.73-.972-3.19-.152-5.68-.303-6.58-.355-4.41-.434-8.84-.638-13.28-.611-16.62 0-31.04 2.654-44.91 5.259-12.98 2.397-25.21 4.638-38.39 4.638-5.16.033-10.31-.325-15.42-1.07-33.99-5-80.6-11.787-109.15-26.274-7.79-3.877-17.77-10.559-21.06-20-.05-2.042-.15-3.573-.2-4.999-.37-2.684-.27-5.412.3-8.062 2.64-13.316 11.13-24.335 20.16-35.97 13.42-17.246 27.25-35.103 23.26-62.652-1.45-9.999-5.64-19.644-9.73-28.875-1.6-3.626-3.3-7.398-4.75-11.175-5.24-13.32-11.37-31.232-15.27-49.75h-.65c3.95 18.625 10.09 36.686 15.33 50.055 1.44 3.72 3.09 7.498 4.74 11.118zm-379.71 275.151c9.23-10.506 17.42-21.734 26.1-33.567 13.78-18.777 28-38.165 46.37-54.183a72.352 72.352 0 003.79-3.882 61.55 61.55 0 013.49-3.568c11.98-10.82 25.71-19.492 38.94-27.804 9.17-5.82 18.71-11.787 27.64-18.521 7.09-5.361 14.23-10.971 21.07-16.379 10.43-8.265 21.21-16.734 32.09-24.388 5.14-3.62 10.48-7.094 16.17-10.767 27.75-18.108 59.19-38.619 63.98-75.715 2.55-19.595-2.49-44.847-13.22-67.552h-.7c10.73 22.653 15.77 47.907 13.27 67.502-4.79 36.785-36.08 57.201-63.73 75.154-5.64 3.674-10.98 7.194-16.12 10.768-10.93 7.7-21.71 16.221-32.1 24.435-6.88 5.412-13.97 11.022-21.16 16.378-8.88 6.682-18.37 12.706-27.55 18.469-13.27 8.421-27 17.094-38.98 27.909-1.29 1.123-2.44 2.449-3.59 3.625a44.377 44.377 0 01-3.74 3.772c-18.42 16.071-32.7 35.511-46.42 54.288-8.69 11.885-16.92 23.06-26.1 33.519a126.808 126.808 0 01-68.68 40.511v.71a128.31 128.31 0 0069.18-40.714zm-40.93-26.425c8.94-13.318 8.99-37.501 8.04-57.093-.75-15.814-.5-46.017 9.63-71.121 7.83-19.184 26.4-36.278 44.37-52.704 2.75-2.549 5.44-5.052 8.09-7.55 35.99-33.52 53.85-63.675 69.57-98.522 1.35-2.954 2.49-6.123 3.64-9.185a116.27 116.27 0 014.75-11.478c.34-.763.74-1.53 1.1-2.246h-.76c-.29.663-.64 1.28-.99 1.891-1.76 3.78-3.33 7.646-4.7 11.584-1.15 3.062-2.29 6.17-3.69 9.133-15.67 34.847-33.44 64.898-69.38 98.365-2.64 2.498-5.39 4.948-8.08 7.451-18.02 16.526-36.69 33.618-44.52 53.005-10.18 25.203-10.43 55.563-9.68 71.377.95 19.539.85 43.572-7.93 56.737-6.4 9.436-16.58 16.17-27.71 21.938v.763c11.33-5.867 21.71-12.654 28.25-22.345zm-18.32-291.175c4.35-4.587 6.19-11.734 6.19-18.724h-.74c0 6.89-1.85 13.928-5.9 18.27-2.84 3.01-6.08 4.643-9.48 4.643v.663c3.54-.003 6.99-1.686 9.93-4.852zm205.03-7.904c-9.48 11.425-16.42 27.042-23.1 42.144a404.27 404.27 0 00-3.05 6.839c-9.78 21.53-21.91 48.367-35.19 66.679-7.18 10.005-19.06 17.194-31.64 24.8-17.81 10.763-36.23 21.938-43.42 42.449-2.6 7.398-2.65 15.506-.1 25.663 2.5 5.663 6.84 8.521 12.83 8.521 9.88 0 21.56-7.81 26.35-11.99 9.53-8.218 17.92-19.592 25.95-30.668 4.34-5.867 8.78-12.037 13.38-17.65 2.24-2.607 9.93-11.583 16.37-15.459 15.27-9.185 34.84-16.228 55.55-23.677 28.8-10.302 58.49-20.964 77.01-38.317 9.88-9.077 15.72-23.363 16.22-39.079.45-16.838-5.24-32.804-16.17-45.05a55.614 55.614 0 00-6.29-6.025h-1.1a59.53 59.53 0 016.89 6.53 63.493 63.493 0 0115.97 44.492c-.4 15.511-6.24 29.644-15.92 38.624-18.47 17.194-48.17 27.856-76.81 38.158-20.77 7.45-40.33 14.493-55.65 23.724-6.64 4.034-14.33 13.014-16.52 15.663-4.69 5.565-9.13 11.743-13.48 17.706-8.03 10.972-16.32 22.298-25.8 30.459-4.74 4.132-16.27 11.886-25.95 11.886-5.74 0-9.84-2.705-12.23-8.113-2.45-9.9-2.4-17.909.15-25.203 7.09-20.255 25.41-31.325 43.12-42.041 12.63-7.653 24.56-14.9 31.89-25.051 13.23-18.317 25.36-45.207 35.19-66.737 1-2.293 1.99-4.592 3.04-6.885 6.69-15.048 13.63-30.559 23.06-41.933a61.725 61.725 0 0112.23-11.28h-1.15a63.899 63.899 0 00-11.63 10.82zm263.92 174.539l.05.104c1.2 1.274 1.9 3.056 2.55 4.791l.15.36.1.204c4.89 4.644 12.17 7.246 20.56 7.246 11.93 0 23.75-5.156 29.55-12.758a17.751 17.751 0 003.42-7.268c.57-2.653.53-5.401-.13-8.034-2.54-10.105-11.98-13.422-22.26-16.123l-.05-.053-.04.055c-17.47 2.601-35.54 13.516-33.89 31.373v.105l-.01-.002zm33.9-30.815c10.07 2.701 19.21 5.867 21.71 15.611.63 2.538.67 5.188.12 7.745a16.962 16.962 0 01-3.32 6.998c-5.64 7.451-17.32 12.503-29 12.503-8.18 0-15.32-2.555-20.06-7.095l-.1-.256c-.7-1.782-1.4-3.621-2.59-5-1.7-19.843 20.95-28.62 33.24-30.506zm146.93 42.549l.25.459.1.052c10.73 6.886 28.49 11.478 44.17 11.478 10.33 0 28.35-2.089 33.04-16.326v-.052c.06-2.432-.38-4.851-1.29-7.107a17.797 17.797 0 00-4.01-6.005c-6.78-7.141-20.31-11.526-35.23-11.526-18.92 0-39.33 7.45-39.63 23.98v.105l.15.099a14.232 14.232 0 012.45 4.843zm37.03-28.369c14.73 0 28.1 4.388 34.79 11.326a17.46 17.46 0 013.8 5.767 17.541 17.541 0 011.29 6.787c-4.59 13.772-22.31 15.815-32.39 15.815-15.52 0-33.04-4.539-43.77-11.326l-.1-.309c-.7-1.735-1.35-3.568-2.54-4.899.34-15.915 20.4-23.161 38.92-23.161zm-512.37 354.18c-3.8 16.583-7.74 33.829-6.14 59.544 12.63 44.744 27.55 78.518 45.46 103.366 4.2 5.767 9.34 12.345 15.83 17.65 9.28 7.601 22.51 12.09 35.24 12.09 12.82 0 23.8-4.489 30.88-12.806 7.89-9.132 10.79-22.293 8.64-39.078-1.25-9.389-4.59-19.289-7.88-28.882-3.3-9.539-6.7-19.387-7.89-28.771-4.84-36.482 10.43-74.286 40.68-101.073 12.82-11.431 26.1-20.663 38.83-29.592 13.82-9.743 28.1-19.795 41.62-32.346 20.57-19.028 43.82-40.662 47.66-73.266v-.151c-2.44-15.412-7.13-31.279-24.3-42.606-9.73-6.478-20.51-9.487-33.89-9.487-11.43 0-23.16 2.194-35.64 4.488-13.42 2.449-27.3 4.999-41.72 4.999-3.54 0-7.04-.151-10.38-.407-6.84-.663-15.47-2.806-24.51-5.099-12.17-3.015-24.8-6.175-34.78-6.175-1.93-.015-3.85.139-5.74.459-13.48 2.09-27.75 14.028-38.68 24.185-18.22 16.884-35.39 34.486-38.23 48.979-1.1 5.663-.75 14.743-.06 21.324 1.01 9.999 3.15 18.468 5.15 26.634 3.54 14.586 7.23 29.69 5.44 53.822-.9 11.741-3.14 21.741-5.59 32.199zm.79-86.171c-1.99-8.161-4.09-16.63-5.09-26.53-.7-6.583-1.04-15.561 0-21.123 2.8-14.336 19.92-31.837 38.04-48.671 10.87-10.051 25.05-21.89 38.33-24.032 1.87-.259 3.75-.378 5.64-.356 9.93 0 22.5 3.109 34.63 6.171 9.09 2.246 17.72 4.388 24.56 5.052 3.39.308 6.89.462 10.48.46 14.47 0 28.4-2.55 41.82-5.099 12.48-2.247 24.21-4.441 35.54-4.441 13.23 0 23.9 3.009 33.59 9.388 16.91 11.222 21.51 26.833 23.95 42.193-3.84 32.297-26.95 53.775-47.41 72.803-13.58 12.502-27.8 22.501-41.58 32.198-12.82 8.975-26 18.264-38.92 29.743-30.45 26.885-45.77 64.898-40.93 101.631 1.25 9.437 4.64 19.283 7.94 28.875 3.29 9.546 6.69 19.44 7.83 28.776 2.2 16.583-.7 29.545-8.48 38.572-6.94 8.114-17.67 12.55-30.35 12.55-12.57 0-25.6-4.488-34.83-11.938-6.39-5.259-11.53-11.833-15.67-17.549-17.92-24.743-32.75-58.472-45.37-103.11-1.6-25.511 2.34-42.705 6.19-59.188 2.44-10.558 4.69-20.558 5.54-32.346 1.79-24.235-1.85-39.386-5.45-54.029zm40.93 84.437c.7 3.01 1.15 6.071 1.7 9.438 1.8 11.734 3.94 25.15 15.72 31.477l.1.052h.1c14.32-1.018 23.36-14.079 32.94-27.857 3.44-4.895 6.94-9.999 10.72-14.439 21.12-24.948 44.92-41.477 67.93-57.496 16.17-11.279 31.49-21.943 45.02-34.847 4.34-2.194 7.29-6.024 10.09-9.696 2.14-2.754 4.33-5.716 7.23-7.957 12.38-15.82 16.47-34.341 10.43-47.093-3.79-8.062-13.27-17.706-36.93-17.706-3.2 0-6.54.204-9.98.512-7.59.767-16.32 2.398-25.46 4.132-10.18 1.887-21.71 4.035-33.34 5.308-2.44.256-4.74.46-7.03.763-31.05 3.166-49.76 5.204-68.43 27.653-13.27 16.071-20.36 35.919-22.36 62.553-1.2 17.042-.25 35.714.6 52.139.45 8.269.85 16.074.95 23.064zm-.85-75.148c1.95-26.483 9.04-46.174 22.16-62.093 18.47-22.397 36.04-24.184 67.98-27.554 2.29-.204 4.59-.459 7.04-.71 11.67-1.28 23.2-3.422 33.39-5.308 9.13-1.682 17.81-3.37 25.4-4.081a96.51 96.51 0 019.94-.564c23.31 0 32.64 9.438 36.38 17.351 5.84 12.549 1.84 30.761-10.33 46.272-2.9 2.299-5.14 5.204-7.34 8.01-2.89 3.876-5.59 7.45-9.83 9.54l-.1.051c-13.53 12.963-28.85 23.626-45.02 34.848-23.06 16.07-46.82 32.6-68.03 57.652-3.79 4.388-7.28 9.493-10.73 14.44-9.48 13.62-18.42 26.53-32.39 27.549-11.48-6.171-13.42-18.772-15.32-30.919-.55-3.364-1-6.478-1.65-9.437-.1-6.938-.55-14.697-.95-22.962-.85-16.423-1.84-35.096-.6-52.085zm432.47-6.228c5.09 48.467 9.88 94.285 46.86 127.043 24.86 21.99 65.03 45.405 103.51 45.405 23.46 0 42.72-8.876 57.3-26.43 12.58-15.255 19.06-33.06 26.51-53.723.8-2.293 1.64-4.592 2.49-6.988 1.49-3.976 2.94-7.904 4.39-11.786 8.28-22.345 16.12-43.363 18.06-60.865 4.35-38.52-9.32-54.031-26.25-69.031-26.35-23.316-60.64-25.051-96.97-26.937-8.59-.46-18.77-1.379-29.49-2.398-16.92-1.585-36.04-3.318-52.06-3.318-17.27 0-28.6 1.991-34.74 6.175-25.75 17.45-22.66 59.847-20.21 77.192l.6 5.661zm19.96-82.243c6.04-4.132 17.27-6.124 34.39-6.124 15.97 0 35.14 1.788 52.01 3.37 10.72.967 20.91 1.939 29.49 2.346 36.23 1.834 70.43 3.621 96.58 26.786 16.82 14.848 30.34 30.257 26.05 68.467-1.95 17.35-9.79 38.368-18.02 60.665-1.45 3.93-2.94 7.853-4.34 11.834-.9 2.299-1.74 4.644-2.55 6.988-7.43 20.563-13.88 38.316-26.44 53.519-14.38 17.397-33.44 26.223-56.76 26.223-38.22 0-78.35-23.421-103.06-45.358-36.83-32.502-41.57-78.216-46.61-126.532l-.65-5.71c-2.49-17.239-5.49-59.281 19.91-76.474zm15.37 90.205c4.44 41.832 8.24 77.954 41.38 104.74 15.37 12.502 43.17 27.094 70.67 27.094 13.67 0 25.21-3.621 34.34-10.815 25.85-20.46 37.08-63.012 38.87-93.214 2.06-34.899-10.48-65.562-33.48-81.888-21.11-15.052-47.97-16.582-76.46-18.166-6.24-.302-12.43-.658-18.62-.658-17.87 0-39.92 2.293-51.21 20.099-6.48 13.521-6.09 29.388-5.64 44.695.06 2.753.1 5.407.15 8.113zm6.09-52.5c11.08-17.45 32.9-19.749 50.61-19.749 6.19 0 12.33.308 18.62.716 28.3 1.585 55.1 3.009 76.11 17.961 22.76 16.223 35.19 46.683 33.14 81.325-1.75 30.103-12.93 72.447-38.63 92.755-8.99 7.089-20.36 10.715-33.89 10.715-27.3 0-54.95-14.592-70.32-27.042-32.84-26.634-36.48-60.917-41.03-104.233-.05-2.654-.1-5.308-.25-8.062-.34-15.255-.74-31.022 5.65-44.386h-.01zm-413.2 45.813l.15.104c.99.741 1.9 1.597 2.7 2.55.95 1.173 2.1 2.174 3.39 2.962l.05.047h.15c18.91-3.416 40.42-13.472 56.15-26.169 6.24-5.052 13.53-11.943 14.97-20.563l.05-.152-.1-.157a28.926 28.926 0 00-3.1-3.516c-.85-.82-1.65-1.585-2.4-2.449l-.05-.157h-.15a83.56 83.56 0 00-8.88-.454c-16.47 0-38.93 5.099-52.4 19.335-7.39 7.905-10.93 17.45-10.54 28.468v.151h.01zm11.03-28.16c13.28-14.132 35.54-19.129 51.91-19.129 2.9-.007 5.8.145 8.68.454.75.865 1.55 1.687 2.3 2.45 1.11.983 2.1 2.097 2.94 3.317-1.44 8.368-8.58 15.103-14.67 20.002-15.62 12.653-36.98 22.653-55.75 26.069a12.976 12.976 0 01-3.04-2.753 21.77 21.77 0 00-2.7-2.602c-.35-10.719 3.04-20.055 10.33-27.808zm465.36 120.558c11.08 7.348 23.46 11.326 34.94 11.326 15.12 0 27.8-6.681 36.83-19.387 20.96-29.537 11.48-85.409-18.57-108.622-8.13-6.379-22.05-13.928-41.97-13.928-4.81.001-9.6.427-14.33 1.274-21.01 3.621-31.94 20.611-31.58 49.032.29 21.584 5.23 60.767 34.68 80.305zm-2.99-128.673c4.7-.804 9.45-1.213 14.22-1.225 19.71 0 33.49 7.445 41.62 13.725 14.18 11.022 24.41 29.842 28.05 51.785 3.6 21.425-.05 42.288-9.73 55.969-8.84 12.497-21.41 19.028-36.23 19.028-11.34 0-23.66-3.929-34.59-11.175-29.15-19.336-34.04-58.263-34.34-79.741-.4-28.057 10.38-44.791 31-48.365v-.001zM1524 723.937c2.74 5.093 5.39 9.999 8.53 14.026l.16.152c4.33 5.763 11.72 15.359 22 13.774 11.08-1.679 25.7-15.15 23.06-34.946-2.09-15.814-12.47-27.397-32.69-36.429-1.3-.559-2.59-1.171-3.94-1.735-9.73-4.178-18.97-8.161-23.21-17.65-4.39-18.771-5.24-44.078-6.19-70.969-.74-22.244-1.55-45.302-4.49-64.949-5.64-37.908-24.6-60.457-58-69.083a80.26 80.26 0 00-9.23-1.938v.716c3.06.448 6.1 1.078 9.08 1.886 33.1 8.469 51.91 30.918 57.5 68.519 2.9 19.644 3.7 42.652 4.49 64.898.9 26.89 1.8 52.245 6.19 71.173 4.39 9.797 13.73 13.776 23.61 18.01 1.35.611 2.65 1.118 3.95 1.734 19.96 8.877 30.19 20.303 32.24 35.918 2.59 19.338-11.63 32.5-22.46 34.128-9.89 1.535-17.12-7.852-21.42-13.421l-.14-.151c-3.1-4.078-5.74-8.876-8.49-13.976-8.63-15.968-17.57-32.498-43.12-28.162-12.08 1.994-25.66 8.572-41.43 19.95v.865c15.87-11.527 29.45-18.16 41.53-20.151 25.1-4.233 33.93 12.092 42.47 27.811zm-67.43-90.512c14.78-16.634 22.66-41.226 21.66-67.552-1-25.358-10.28-48.519-24.86-62.04-4-2.982-8.54-5.164-13.37-6.426v.659a40.123 40.123 0 0112.92 6.227c14.48 13.471 23.66 36.477 24.66 61.58 1 26.122-6.84 50.615-21.46 67.143A96.61 96.61 0 011440 647.15v.815a89.618 89.618 0 0016.57-14.54zm599.66 4.437c-.64-4.538-2.69-9.999-4.39-14.336-14.07-35.813-47.11-73.366-71.12-94.59-16.47-14.545-30.14-23.061-40.63-25.207-2.37-.521-4.8-.776-7.23-.763-28.65 0-63.84 29.794-66.03 55.917.12 1.298.37 2.58.75 3.829.4 1.939.9 3.877.7 5.967v.104l.04.048a539.219 539.219 0 0034.44 68.774c5.69 9.592 11.43 18.776 18.97 26.483 18.22 18.62 49.96 31.681 77.01 31.681 14.97 0 27.5-3.876 37.23-11.374 16.27-12.606 23.11-28.269 20.26-46.533zm-57.49 57.197c-26.9 0-58.4-12.961-76.51-31.481-7.49-7.602-13.23-16.786-18.92-26.275a543.592 543.592 0 01-34.34-68.623c.08-2.071-.19-4.141-.79-6.123-.32-1.21-.57-2.437-.75-3.674 2.24-25.815 37.08-55.202 65.43-55.202 2.39-.019 4.79.203 7.14.664 10.38 2.193 23.95 10.61 40.32 25.097 23.91 21.227 56.85 58.624 70.88 94.339 1.69 4.283 3.74 9.691 4.44 14.184 2.74 18.01-4.05 33.468-20.12 45.865-9.58 7.399-21.96 11.228-36.78 11.228v.001zm-5.14-114.541c-14.43-13.468-31.6-23.218-44.92-25.359a39.685 39.685 0 00-7.19-.663c-8.28 0-14.92 2.654-19.81 7.857-5.74 6.071-8.59 15.611-8.13 26.839 5.84 25.662 11.72 46.529 29.39 61.225 11.13 9.388 28.3 15.459 43.57 15.459 18.37 0 31.1-8.626 34.89-23.573 1.1-4.441.9-10.867.25-15.307-2.2-14.897-12.43-31.839-28.05-46.478zm27.1 61.581c-3.7 14.691-16.12 23.061-34.19 23.061-15.17 0-32.09-6.019-43.17-15.256-17.47-14.592-23.31-35.306-29.15-60.818-.45-10.966 2.4-20.302 7.99-26.325 4.69-5.001 11.23-7.55 19.31-7.55 2.38.014 4.75.218 7.09.611 27.65 4.539 67.73 39.899 72.47 71.278.6 4.335.79 10.662-.35 14.998v.001zm663.84-629.485c16.12 8.01 35.09 8.825 50.81 2.242A50.149 50.149 0 002755.01.008h-.79a47.806 47.806 0 01-19.06 14.184c-15.58 6.583-34.39 5.768-50.32-2.142-5.19-2.55-10.08-6.583-14.77-12.042h-.9c4.85 5.82 9.99 9.952 15.37 12.606zm-571.71 28.009c6.29 4.538 12.28 9.388 18.07 14.027 14.02 11.228 27.25 21.74 41.82 26.739 16.32 8.312 31.92 12.478 46.82 12.497a75.847 75.847 0 0035.28-8.62c32.85-16.888 51.36-53.773 58.45-85.258h-.7c-7.09 31.227-25.4 67.912-58.04 84.648-24.41 12.549-51.86 11.222-81.55-3.882-14.53-4.947-27.71-15.506-41.68-26.733-5.79-4.593-11.78-9.389-18.12-13.981-6.79-4.948-13.83-9.744-20.66-14.336-12.38-8.418-24.51-16.631-35.19-25.716h-1.1c10.89 9.341 23.26 17.705 35.94 26.279 6.84 4.64 13.87 9.385 20.66 14.336zm235.88 12.805c4.44 11.018 14.22 16.378 29.89 16.378 7.93 0 16.17-1.379 22.81-2.502h.2c1.53-.254 3.08-.373 4.64-.356 6.24 0 12.63 1.886 18.76 3.726 3.15.966 6.49 1.938 9.69 2.602 2.6.61 5.14 1.07 7.69 1.63 10.52 2.094 21.45 4.289 31.34 8.928 3.89 1.84 7.88 3.626 11.77 5.308 19.27 8.521 39.19 17.345 52.11 34.492.8 1.071 1.49 2.142 2.25 3.213 9.03 13.673 16.87 28.364 24.35 42.601 8.49 16.07 17.27 32.553 27.86 47.651 10.22 14.744 24 31.023 37.32 46.786a2685.86 2685.86 0 0113.23 15.819c21.16 25.61 41.12 49.742 77.96 49.742h.05c9.44 0 19.41-1.531 30.64-4.592 31.9-8.772 88.2-30.715 107.46-78.263 5.09-12.601 8.48-30.207 12.08-48.775 2.74-14.033 5.59-28.572 9.19-40.662v-2.298c-3.96 12.549-6.95 27.961-9.79 42.804-3.64 18.624-7.03 36.127-12.08 48.676-19.17 47.343-75.26 69.083-107 77.854-11.19 3.114-21.17 4.593-30.5 4.593h-.05c-36.48 0-56.4-24.028-77.41-49.538-4.24-5.105-8.64-10.309-13.27-15.768-13.28-15.762-27.06-32.089-37.34-46.733-10.48-15.052-19.26-31.634-27.75-47.6-7.53-14.236-15.37-28.98-24.4-42.657-.7-1.072-1.5-2.242-2.3-3.266-13.03-17.24-32.99-26.122-52.31-34.69a629.11 629.11 0 01-11.77-5.308c-9.98-4.692-20.92-6.886-31.5-9.028a366.53 366.53 0 01-7.69-1.585c-3.13-.716-6.43-1.682-9.63-2.602-6.19-1.84-12.57-3.777-18.96-3.777-1.59.01-3.17.131-4.74.36l-.3.047c-6.54 1.123-14.73 2.45-22.61 2.45-15.32 0-24.95-5.204-29.25-15.868-4.48-10.97-2.99-29.591-1.65-46.07.2-2.502.4-4.848.56-7.146h-.7c-.15 2.298-.3 4.644-.51 7.094-1.33 16.535-2.79 35.26 1.66 46.33zm276.04-32.502c19.82 27.448 55.01 43.776 94.08 43.776 9.43.03 18.84-.98 28.05-3.009 34.74-7.857 45.87-32.088 50.81-61.685h-.65c-1.55 9.388-3.7 18.165-7.04 26.079-8.03 18.98-21.81 30.098-43.22 34.946a127.954 127.954 0 01-27.95 3.01c-38.87 0-73.81-16.275-93.53-43.52-2.19-5.815-4.04-12.858-5.84-20.512h-.7c1.56 7.07 3.55 14.04 5.94 20.872l.05.044zM2435.3 35.268c17.67 2.601 34.53 7.957 50.76 13.16 10.48 3.37 21.35 6.839 32.39 9.54a239.355 239.355 0 0020.31 4.08c5.53.904 11.12 1.4 16.72 1.484 9.68 0 15.42-2.04 17.22-6.123 4.93-10.867 8.73-34.492 8.94-57.401h-.65c-.2 22.81-4 46.278-8.84 57.145-1.7 3.777-7.34 5.663-16.67 5.663-5.57-.067-11.12-.543-16.62-1.426a241.257 241.257 0 01-20.26-4.086c-11.03-2.7-21.81-6.17-32.3-9.54-16.32-5.203-33.19-10.61-50.95-13.212-17.47-2.55-31.4-14.796-39.58-34.544h-.75c8.28 20.156 22.46 32.606 40.28 35.26zm389.24-17.606c-.89 25.103-1.69 46.837-18.01 59.642-16.97 13.421-46.62 17.245-68.29 20.004-2.14.303-4.29.612-6.28.864-3.86.517-7.74.771-11.63.763-22.06 0-45.57-7.601-68.33-14.9-20.35-6.479-41.36-13.265-61.04-14.435h-.05l-.05.053c-11.23 3.265-14.02 15.506-12.92 25.862 3.19 40.459 17.12 73.571 48.21 114.33 6.24 8.165 12.13 16.483 17.77 24.544 9.69 13.568 18.76 26.477 29.39 38.619 15.92 18.317 35.89 27.502 59.4 27.502 27.25 0 57.89-12.957 84.1-35.661 27-29.897 31.04-69.49 32.88-107.498.16-2.962.21-6.023.31-9.336.4-15.255.84-34.287 8.18-43.676 6.44-8.265 14.02-14.644 21.82-20.255v-.815c-7.99 5.715-15.73 12.141-22.37 20.715-7.43 9.487-7.89 28.619-8.33 43.979-.1 3.314-.15 6.426-.3 9.336-1.8 37.856-5.84 77.395-32.69 107.091-26.06 22.549-56.5 35.511-83.6 35.511-23.31 0-43.17-9.237-58.89-27.298-10.59-12.194-19.72-24.998-29.35-38.671-5.64-8.01-11.53-16.275-17.77-24.494-30.99-40.662-44.92-73.722-48.06-114.03-1.1-9.998 1.54-21.936 12.37-25.103 19.52 1.176 40.48 7.858 60.8 14.388 22.81 7.299 46.36 14.9 68.52 14.9a97.03 97.03 0 0011.73-.767c1.99-.303 4.14-.56 6.29-.816 21.71-2.805 51.5-6.681 68.52-20.15 16.62-13.061 17.42-34.847 18.37-60.206.2-5.25.35-10.71.69-16.17.09-.491.14-.987.16-1.484h-.7c0 .512-.05.92-.05 1.431-.4 5.52-.6 10.928-.8 16.23zm39.43-11.887c.75 9.437 8.23 17.805 16.03 17.805v-.715c-7.5 0-14.64-8.009-15.33-17.141-.2-1.9-.21-3.814-.05-5.716h-.65a32.669 32.669 0 000 5.767zm-93.08 126.328c-4.6.027-9.18.505-13.68 1.426-10.18 2.043-21.06 5.308-32.64 8.777-12.92 3.877-26.4 7.957-39.18 10.203-11.82 2.195-16.96 7.55-15.62 16.478v.053c4.14 8.929 7.34 18.875 10.73 29.388 7.29 22.96 14.88 46.682 33.29 59.031 8.68 5.763 19.27 8.823 30.59 8.823 18.42 0 37.24-7.857 50.52-21.07 10.87-10.919 18.81-28.672 21.25-47.501 2.6-19.847-1.29-38.671-10.72-51.633-6.29-8.62-19.57-13.975-34.54-13.975zm23.51 112.6c-13.13 13.112-31.85 20.919-50.02 20.919-11.22 0-21.65-3.01-30.24-8.772-18.27-12.194-25.75-35.766-33.09-58.623-3.34-10.512-6.49-20.46-10.63-29.388-1.25-8.573 3.49-13.573 15.07-15.611 12.78-2.351 26.3-6.326 39.33-10.255 11.48-3.469 22.41-6.735 32.5-8.777a69.726 69.726 0 0113.57-1.38c14.77 0 27.79 5.259 33.98 13.725 20.52 28.058 11.04 76.682-10.47 98.159v.003zm-788.08 191.226c3.39 6.582 6.89 13.369 9.78 20.103 2.6 5.764 5.19 11.833 7.74 17.753 15.52 36.069 31.54 73.419 54.9 103.366 8.93 11.478 19.76 22.449 30.19 33.164 10.04 10.152 19.47 19.691 27.01 29.388 3.58 4.642 6.88 9.497 9.88 14.537 6.44 10.203 12.52 19.848 22.66 26.478l.1.051 2.9-.203c38.72-2.346 72.21-4.389 107.9-11.018 25.35-4.698 43.32-9.744 53.26-14.953 20.51-10.762 26.09-29.999 32.08-50.406.65-2.089 1.3-4.237 1.9-6.378 8.68-28.876 21.27-58.164 53.85-76.476l.1-.157c.25-.303.5-.611.8-.914 6.74-3.626 13.47-7.299 20.26-10.972 11.78-6.326 23.96-12.961 35.99-19.283 5.19-2.758 10.34-5.619 15.42-8.317 7.89-4.337 16.07-8.777 24.15-12.91 5.6-2.753 10.54-6.583 15.43-10.255 1.2-.92 2.44-1.887 3.65-2.806 4.49-3.37 9.48-6.787 15.16-9.028 10.68-4.289 22.52-4.796 33.89-5.36 9.89-.408 20.07-.92 29.65-3.778 9.13-2.7 15.47-5.099 20.76-13.061 17.12-25.502 8.44-44.593-5.59-68.722-14.77-25.307-32.74-45.051-53.45-58.624a92.423 92.423 0 00-11.63-6.222c-4.34-2.089-8.78-4.232-12.77-7.09-4.65-3.264-9.14-6.838-13.48-10.307-3.55-2.805-7.14-5.716-10.83-8.469-15.03-11.071-32.99-23.369-53.16-30.61-6.68-2.398-14.62-2.858-20.11-2.858-5.46-.017-10.9.478-16.27 1.479-6.24 1.224-11.28 4.027-16.62 7.037-2.24 1.28-4.64 2.607-7.09 3.829-2.69 1.225-5.49 2.195-8.18 3.161a60.026 60.026 0 00-10.38 4.388c-8.19 4.593-16.12 9.954-23.76 15.157-7.38 5-15.02 10.151-22.86 14.639-37.03 21.279-68.77 33.269-99.67 37.856a189.034 189.034 0 01-27.8 2.095 181.017 181.017 0 01-34.14-3.213c-8.68-1.635-17.61-4.185-26.3-6.687-15.22-4.336-30.89-8.821-46.27-8.821a64.523 64.523 0 00-23.35 4.027c-14.68 5.512-27.75 16.944-41.63 29.086-7.08 6.169-14.37 12.548-22.31 18.619-1.79 1.327-4.04 2.91-6.59 4.697-5.63 4.08-12.67 9.077-18.71 14.284-11.23 9.848-14.32 18.829-10.63 31.122 3.09 10.101 8.43 20.562 14.17 31.579v.003zm-3.14-62.145c6.04-5.251 13.03-10.204 18.71-14.284 2.55-1.787 4.74-3.365 6.54-4.743 7.99-6.02 15.32-12.451 22.41-18.626 13.78-12.089 26.8-23.468 41.37-28.975a65.829 65.829 0 0123.16-4.034c15.28 0 30.9 4.487 46.07 8.876 8.73 2.502 17.66 5.052 26.4 6.734a186.01 186.01 0 0034.24 3.166c9.32.012 18.63-.688 27.85-2.095 31.09-4.592 62.84-16.681 99.97-37.956 7.83-4.493 15.47-9.696 22.9-14.643 7.6-5.204 15.58-10.512 23.66-15.104a62.461 62.461 0 0110.29-4.337 73.78 73.78 0 008.22-3.265c2.51-1.17 4.9-2.55 7.14-3.772 5.35-2.963 10.33-5.821 16.43-6.988a86.329 86.329 0 0116.17-1.531c5.44 0 13.27.559 19.91 2.905 20.01 7.194 38.04 19.492 52.96 30.563 3.64 2.706 7.33 5.564 10.83 8.416 4.39 3.422 8.88 6.988 13.47 10.308a91.566 91.566 0 0012.93 7.142 89.778 89.778 0 0111.48 6.176c20.66 13.572 38.58 33.211 53.25 58.367 13.93 23.98 22.51 42.909 5.64 68.059-5.19 7.805-11.43 10.104-20.36 12.758-9.53 2.905-19.72 3.314-29.5 3.824-11.48.46-23.3 1.019-34.19 5.355-5.68 2.247-10.68 5.716-15.22 9.086-1.3.914-2.5 1.886-3.69 2.805-4.85 3.674-9.83 7.497-15.27 10.256-8.19 4.08-16.33 8.516-24.21 12.805-5.04 2.753-10.29 5.663-15.47 8.364a3909.06 3909.06 0 00-35.94 19.289c-6.78 3.725-13.52 7.398-20.31 11.018l-.1.053a8.06 8.06 0 00-.85.966c-32.74 18.521-45.32 47.907-54.05 76.888-.65 2.142-1.3 4.29-1.9 6.38-5.94 20.255-11.58 39.387-31.79 49.945-9.93 5.259-27.75 10.308-53.05 14.953-35.64 6.627-69.13 8.672-107.86 11.018l-2.64.152c-9.99-6.532-16.02-16.019-22.41-26.17-3.03-5.04-6.33-9.912-9.89-14.592-7.63-9.697-17.07-19.336-27.05-29.439-10.43-10.716-21.31-21.735-30.14-33.165-23.31-29.897-39.38-67.192-54.85-103.163-2.55-5.92-5.14-11.99-7.69-17.753-2.99-6.734-6.49-13.573-9.88-20.156-5.64-11.071-10.98-21.373-14.07-31.531-3.59-11.939-.65-20.716 10.38-30.308v.003zm62.19 108.417l1.29 5.053c13.53 51.426 33.59 81.937 74.12 112.291l.95.768c21.81 16.326 40.67 30.51 61.63 37.292 10.49 3.474 23.32 5.259 37.04 5.259h.05c18.21 0 36.79-3.265 49.61-8.672 33.89-14.336 46.31-44.643 60.58-79.845 18.78-46.07 51.67-105.665 101.53-128.01 9.02-4.028 17.76-4.848 27-5.716 3.54-.302 7.23-.71 10.97-1.224 14.13-2.043 29.9-5 48.32-9.077 2.59-.513 5.19-1.124 7.78-1.735 13.48-3.061 31.3-11.739 37.14-26.023 4.34-10.558 3.69-20.203-1.75-28.62-16.27-25.004-72.32-33.571-95.33-33.624h-.45c-10.18 0-20.61 1.071-30.69 2.142-5.73.611-11.63 1.275-17.31 1.635-9.69.711-17.58 3.522-27.31 9.744-10.03 6.426-20.81 9.487-33.84 9.487-9.73 0-19.61-1.63-30.04-3.313-3.15-.564-6.44-1.071-9.73-1.585-13.68-2.043-28.31-2.963-46.17-2.963-11.08 0-22.26.361-33.04.716-10.73.308-21.76.664-32.64.664-19.82 0-35.79-1.225-50.46-3.825-4.29-.82-8.94-1.938-13.87-3.113-10.58-2.602-22.57-5.559-34.59-5.559a60.481 60.481 0 00-18.17 2.55c-27.8 8.567-51.06 43.315-55.35 70.456-1.6 10.157-1.35 20.563.7 32.757 3.2 18.568 7.48 34.847 12.03 52.087v.003zm-12.03-84.739c4.24-26.944 27.25-61.379 54.8-69.898a61.9 61.9 0 0118.02-2.555c11.97 0 23.9 2.91 34.44 5.511 4.88 1.229 9.58 2.346 13.92 3.17 14.67 2.649 30.7 3.825 50.56 3.825 10.88 0 21.91-.308 32.64-.664 10.78-.355 21.96-.716 33.04-.716 17.76 0 32.44.972 46.07 2.963 3.29.559 6.58 1.071 9.73 1.585 10.48 1.682 20.36 3.265 30.14 3.265 13.13 0 24.06-3.015 34.24-9.493 9.63-6.175 17.42-8.928 26.96-9.644 5.68-.454 11.57-1.019 17.31-1.63 10.03-1.071 20.51-2.142 30.65-2.142h.44c22.91.052 78.61 8.521 94.74 33.264 5.33 8.212 5.94 17.65 1.69 28.06-5.74 14.033-23.31 22.549-36.63 25.611-2.55.564-5.15 1.123-7.74 1.734-18.42 4.034-34.19 6.988-48.31 9.033-3.7.512-7.39.865-10.93 1.176-9.29.914-18.12 1.735-27.2 5.814-50.11 22.398-83.05 82.139-101.92 128.365-14.22 34.999-26.55 65.253-60.19 79.438-12.78 5.408-31.19 8.626-49.36 8.626h-.05c-13.68 0-26.4-1.787-36.83-5.157-20.86-6.734-39.63-20.867-61.49-37.245l-.95-.763c-40.32-30.257-60.34-60.614-73.82-111.886l-1.29-5.052c-4.59-17.246-8.88-33.572-11.98-52.041-2.1-12.152-2.3-22.506-.7-32.554zm-220.85-331.84c1.15 9.592 2.59 27.397-.65 39.335-5.39 19.696-20.96 36.634-35.98 53.064-21.26 23.108-43.22 47.043-36.49 79.029 3.65 17.241 12.73 27.956 27.95 32.805 13.18 4.231 29.4 3.674 47.67 2.654 33.33-1.891 55.94 3.724 69.07 8.823 13.28 5.205 25.45 13.777 37.33 22.142 15.88 11.175 30.9 21.786 47.87 24.134 6.24.949 12.61.688 18.76-.768 15.88-3.573 27.86-11.734 40.53-20.406 21.56-14.645 43.82-29.848 87.04-21.024 9.49 1.892 18.92 4.796 28.9 7.811 31.85 9.639 64.78 19.539 101.61-.413 33.29-17.089 54.26-48.467 74.47-78.827 9.43-14.132 19.21-28.823 30-41.681 13.82-16.43 32.64-38.927 55.75-31.121 9.28 3.061 18.86 4.592 28.15 6.071 14.72 2.398 29.89 4.848 43.57 13.62 9.78 6.28 17.37 15.208 24.75 23.881 3.45 4.027 7.04 8.212 10.78 12.089 8.29 8.521 14.97 18.573 21.47 28.264 5.54 8.266 11.22 16.739 17.91 24.341 8.98 8.108 16.87 15.2 26.05 23.672 11.08 10.355 21.22 22.653 31 34.487 18.76 22.809 36.43 44.287 59.54 51.225 16.32 4.948 33.19 4.284 54.7-2.042 11.48-3.417 26.65-10 37.33-15a498.691 498.691 0 0065.18-36.733 90.765 90.765 0 0033.25-41.273v-1.787a90.007 90.007 0 01-33.55 42.449 502.804 502.804 0 01-65.17 36.733c-10.64 4.947-25.76 11.583-37.19 14.952-21.46 6.275-38.18 6.938-54.35 2.089-22.91-6.885-40.53-28.316-59.24-51.022-9.78-11.833-19.92-24.183-31.1-34.539a2014.253 2014.253 0 00-26-23.724c-6.64-7.502-12.27-16.018-17.82-24.236-6.48-9.691-13.28-19.739-21.51-28.317-3.79-3.876-7.34-8.061-10.78-12.141-7.39-8.673-15.02-17.65-24.9-23.928-13.78-8.876-29.05-11.327-43.83-13.673-9.27-1.531-18.86-3.061-28-6.123-23.55-7.91-42.61 14.743-56.49 31.325-10.83 12.963-20.57 27.555-30.04 41.734-20.22 30.359-41.08 61.685-74.17 78.622-36.64 19.848-69.47 9.948-101.21.361-9.99-3.015-19.42-5.867-28.96-7.811-43.42-8.816-65.83 6.384-87.49 21.128-12.63 8.626-24.56 16.74-40.38 20.308a48.511 48.511 0 01-18.46.716c-16.77-2.247-31.8-12.805-47.62-24.033-11.83-8.317-24.15-16.99-37.48-22.194-13.13-5.099-35.83-10.762-69.32-8.876-31.3 1.787-66.83 3.825-74.97-34.899-6.59-31.626 15.23-55.458 36.34-78.466 15.12-16.483 30.74-33.473 36.13-53.315 3.14-11.38 2.15-27.808.75-39.591-2.3-18.933-7.74-38.369-13.53-58.88a359.49 359.49 0 00-1.84-6.635h-.7c.65 2.299 1.29 4.545 1.94 6.839 5.75 20.511 11.23 39.847 13.43 58.775z" fill="#000" fill-opacity=".3"/></svg>